<svg id="Camada_1" data-name="Camada 1" xmlns="http://www.w3.org/2000/svg" viewBox="0 0 200 150"><defs><style>.cls-1{fill:#e8e8e8;}.cls-2{opacity:0.34;}.cls-3{fill:#2687e9;}</style></defs><title>backgroundImage</title><rect class="cls-1" width="200" height="150"/><g class="cls-2"><path class="cls-3" d="M29.1,75.21s6.1,5.08,6.54,7.39c0,0,6.34-10.68,14.84-13.45,0,0-10.31,2.45-14.83,11.27,0,0-2.82-3.84-6.56-5.2m1.6-2.91a10.22,10.22,0,0,1,4.78,4.27c4.13-9.81,19.75-11.38,19.75-11.38-2.07.56-3.48,5.89-3.48,5.89a30.21,30.21,0,0,1-2.39,6.05C44.38,84.82,37.54,84,37.54,84c-12,0-10.47-14.7-10.47-14.7,0,1.17,3.63,3,3.63,3"/><path class="cls-3" d="M72.82,77.4a6.86,6.86,0,0,1-2.35,4.89A8.72,8.72,0,0,1,64.85,84a7.78,7.78,0,0,1-6.19-2.44q-2.14-2.35-2.14-6.92t2.18-7a8.3,8.3,0,0,1,6.45-2.44,8.21,8.21,0,0,1,5.46,1.71,6.68,6.68,0,0,1,2.18,4.68H70.58a1.81,1.81,0,0,1-1.77-1.09,5.12,5.12,0,0,0-.88-1.2,4.49,4.49,0,0,0-2.76-.78A4.54,4.54,0,0,0,61.48,70a7.25,7.25,0,0,0-1.26,4.6,7.05,7.05,0,0,0,1.25,4.48,4.18,4.18,0,0,0,3.59,1.61,4.42,4.42,0,0,0,2.76-.83,4.37,4.37,0,0,0,1.41-2.5h3.6Zm5.53-4.21a4.8,4.8,0,0,0-1,3.56,5.68,5.68,0,0,0,.88,3.3,2.35,2.35,0,0,0,1.09.7,2.48,2.48,0,0,0,1.59.05,2.67,2.67,0,0,0,1.43-1.17,5.85,5.85,0,0,0,.68-3,5.3,5.3,0,0,0-.6-2.81A2.76,2.76,0,0,0,81,72.6a2.53,2.53,0,0,0-1.56,0,2.7,2.7,0,0,0-1.14.6m-2.5,9.16a5.12,5.12,0,0,1-1.56-2.52,11.62,11.62,0,0,1-.47-3.3,10.46,10.46,0,0,1,.39-2.81,5.8,5.8,0,0,1,1.22-2.35,5.4,5.4,0,0,1,3.49-1.85,8,8,0,0,1,3.84.34,5.3,5.3,0,0,1,2.92,2.72,8.64,8.64,0,0,1,.88,4,10,10,0,0,1-.36,2.86,7.36,7.36,0,0,1-.94,2,5.19,5.19,0,0,1-3.17,2.14,7.07,7.07,0,0,1-3.46.08,6,6,0,0,1-2.78-1.33m23.89,1.25H97.93A1.69,1.69,0,0,1,96.16,82q0-.08,0-.15V74.74a2.14,2.14,0,0,0-.75-1.82,2.73,2.73,0,0,0-1.69-.57,2.62,2.62,0,0,0-1.68.58,2.17,2.17,0,0,0-.73,1.81v8.84H87.67V75.47q0-3.54,1.85-4.73a8.07,8.07,0,0,1,4.08-1.3,7.83,7.83,0,0,1,4.22,1.2q1.92,1.2,1.92,4.84v8.11h0Zm7.24,0a27,27,0,0,1-3.72-.05q-2-.16-2-2.55V65.69h1.87a1.65,1.65,0,0,1,1.2.52,1.71,1.71,0,0,1,.51,1.25v2.35H107v.72a1.68,1.68,0,0,1-.52,1.28,1.75,1.75,0,0,1-1.25.49h-.37V80q0,.89,1,.89H107V83.6h0Zm8.86-7a9.82,9.82,0,0,1-2,.68l-1.2.26a3.08,3.08,0,0,0-1.37.67,2.12,2.12,0,0,0-.37,1.14,1.69,1.69,0,0,0,.47,1.25,1.9,1.9,0,0,0,1.35.42,2.88,2.88,0,0,0,3.12-3.12v-1.3h0Zm.83,6.41a6.43,6.43,0,0,1-2.32.7,20.79,20.79,0,0,1-2.16.13,5.46,5.46,0,0,1-3.28-1,3.86,3.86,0,0,1-1.41-3.35,3.61,3.61,0,0,1,1.28-3.12,7.38,7.38,0,0,1,3.25-1.25,3,3,0,0,0,.62-.08,7.91,7.91,0,0,1,.83-.13q2.29-.31,2.29-1.35a1,1,0,0,0-.81-1,5.34,5.34,0,0,0-1.48-.23,3.79,3.79,0,0,0-1.3.21,1.42,1.42,0,0,0-.83.78h-3.5a4,4,0,0,1,1.45-2.67,6,6,0,0,1,4-1.2,7.84,7.84,0,0,1,4.37,1,3.34,3.34,0,0,1,1.51,2.91v4.73a6,6,0,0,1-.75,3.25,4.62,4.62,0,0,1-1.8,1.69m12.14-13.74-2.5,7.59h5ZM128,65.69h2.91l6.5,17.9h-3.9l-1.2-3.69h-7l-1.14,3.69h-3.9l5.93-16.7a1.75,1.75,0,0,1,1.77-1.2m10.78,17.9V80.83l7.44-8.23h-5.26a1.75,1.75,0,0,1-1.25-.49,1.62,1.62,0,0,1-.51-1.22V69.75h11.34v3l-7.33,7.86h7.6v3h-12ZM164,69.75v8.11q0,3.69-1.92,4.84a8.1,8.1,0,0,1-4.22,1.15,8.36,8.36,0,0,1-4.08-1.25q-1.85-1.14-1.85-4.73V69.76h3.64V78.6a2.17,2.17,0,0,0,.73,1.82,2.61,2.61,0,0,0,1.67.57,2.72,2.72,0,0,0,1.69-.57,2.14,2.14,0,0,0,.75-1.82V71.52a1.75,1.75,0,0,1,.49-1.25,1.68,1.68,0,0,1,1.28-.52H164Zm1.26-4.06h1.87a1.75,1.75,0,0,1,1.25.5,1.62,1.62,0,0,1,.52,1.22V83.6h-3.64V65.69h0Z"/></g></svg>