<svg id="Camada_1" data-name="Camada 1" xmlns="http://www.w3.org/2000/svg" viewBox="0 0 138.23 37.04"><defs><style>.cls-1{fill:#fff;}</style></defs><title>beerHero</title><path class="cls-1" d="M29.52,18a11,11,0,0,1,2.64,3.57,10.53,10.53,0,0,1-.06,8.84,11.61,11.61,0,0,1-2.73,3.65,13.05,13.05,0,0,1-4.06,2.46,13.59,13.59,0,0,1-5,.9H-.23V30H3.88V7.79H-.23V.38H20.34A12.69,12.69,0,0,1,25,1.23a12.25,12.25,0,0,1,3.79,2.3,11,11,0,0,1,2.56,3.41,9.73,9.73,0,0,1,.21,7.89A11.23,11.23,0,0,1,29.52,18ZM20.34,34.09a9.71,9.71,0,0,0,3.53-.64,9.16,9.16,0,0,0,2.88-1.75,8.18,8.18,0,0,0,1.94-2.59,7.29,7.29,0,0,0,.7-3.18,7.51,7.51,0,0,0-2.53-5.66l-.23-.21a6.13,6.13,0,0,0-1.27-.9l-1.14-.58c-.43-.14-.82-.29-1.18-.42l1.23-.53A10.57,10.57,0,0,0,25.34,17a6.14,6.14,0,0,0,1-.82l.35-.37a8,8,0,0,0,1.38-2.19,6.45,6.45,0,0,0,.5-2.52,6.63,6.63,0,0,0-.65-2.88,7.61,7.61,0,0,0-1.76-2.36,8.51,8.51,0,0,0-2.62-1.59,8.81,8.81,0,0,0-3.2-.58H3.47v.74H7.58V33.35H3.47v.75Zm7.41-23a5.86,5.86,0,0,1-.59,2.59,6.74,6.74,0,0,1-1.59,2.12,7.61,7.61,0,0,1-2.35,1.43,7.82,7.82,0,0,1-2.88.53H8.41V4.45H20.34A7.84,7.84,0,0,1,23.22,5a7.69,7.69,0,0,1,2.35,1.43,6.78,6.78,0,0,1,1.59,2.12A5.86,5.86,0,0,1,27.75,11.12Zm-7.41,7.41a8.75,8.75,0,0,1,3.2.58,8.52,8.52,0,0,1,2.62,1.59,7.63,7.63,0,0,1,1.76,2.36,6.76,6.76,0,0,1,0,5.77,7.48,7.48,0,0,1-1.76,2.36,8.5,8.5,0,0,1-2.62,1.59,8.73,8.73,0,0,1-3.2.58H8.41V18.53Zm-8.23-4.07h8.23a3.76,3.76,0,0,0,2.62-1,3.09,3.09,0,0,0,0-4.71,3.76,3.76,0,0,0-2.62-1H12.11ZM20.34,30a4.59,4.59,0,0,0,3.2-1.2,3.8,3.8,0,0,0,0-5.77,4.61,4.61,0,0,0-3.2-1.19H12.11V30Z" transform="translate(0.23 -0.38)"/><path class="cls-1" d="M56.92,11.49V7.79H48.68V15.2h8.23v7.41H48.68V30h8.23V26.31h8.23V37.42H36.34V30h4.12V7.79H36.34V.38H65.15V11.49Zm3.7-7v3.7h.83V3.71H40v.74h4.11V33.35H40v.75h21.4V29.65h-.83v3.7H45V19.27h8.23v-.74H45V4.45Z" transform="translate(0.23 -0.38)"/><path class="cls-1" d="M89.43,11.49V7.79H81.2V15.2h8.23v7.41H81.2V30h8.23V26.31h8.23V37.42H68.85V30H73V7.79H68.85V.38H97.66V11.49Zm3.71-7v3.7H94V3.71H72.56v.74h4.12V33.35H72.56v.75H94V29.65h-.82v3.7H77.5V19.27h8.23v-.74H77.5V4.45Z" transform="translate(0.23 -0.38)"/><path class="cls-1" d="M138,30v7.41H121.53V30h3.35l-3.76-5.93h-7.41V30h4.12v7.41H101.37V30h4.12V7.79h-4.12V.38h19.52a14.07,14.07,0,0,1,9.17,3.54,11.91,11.91,0,0,1,2.79,3.73,10.43,10.43,0,0,1,1,4.58,10.31,10.31,0,0,1-1.35,5.19,13.44,13.44,0,0,1-3.59,4.08L134.41,30Zm-3.71,3.33h-2.06l-8.29-13.07a4.38,4.38,0,0,0,.76-.32,14.13,14.13,0,0,0,1.52-.79l.42-.31a8.43,8.43,0,0,0,2.62-2.94,7.71,7.71,0,0,0,.91-3.68A7.5,7.5,0,0,0,129.45,9a8.89,8.89,0,0,0-2-2.7A9.71,9.71,0,0,0,124.5,4.4a9.39,9.39,0,0,0-3.61-.69H105.07v.74h4.12V33.35h-4.12v.75h9.05v-.75H110V20.75h10.52c.43,0,.89,0,1.38-.05a4.89,4.89,0,0,0,1.2-.21l8.17,12.86h-6.05v.75h9.05Zm-4.94-21.11a7,7,0,0,1-.67,3,7.82,7.82,0,0,1-1.86,2.49,8.66,8.66,0,0,1-2.76,1.66,9.27,9.27,0,0,1-3.35.61H110V4.45h10.7a9.32,9.32,0,0,1,3.35.61,8.74,8.74,0,0,1,2.76,1.67,7.84,7.84,0,0,1,1.86,2.48A7,7,0,0,1,129.36,12.23Zm-8.64,4.45a5.05,5.05,0,0,0,3.5-1.3,4.16,4.16,0,0,0,0-6.29,5,5,0,0,0-3.5-1.3h-7v8.89Z" transform="translate(0.23 -0.38)"/></svg>