<svg id="Camada_1" data-name="Camada 1" xmlns="http://www.w3.org/2000/svg" xmlns:xlink="http://www.w3.org/1999/xlink" viewBox="0 0 349 144"><defs><style>.cls-1{opacity:0.34;fill:url(#Gradiente_sem_nome_74);}.cls-2{fill:#2687e9;}</style><radialGradient id="Gradiente_sem_nome_74" cx="-24.94" cy="-585.66" r="80.97" gradientTransform="translate(228.26 180.21) scale(2.16 0.12)" gradientUnits="userSpaceOnUse"><stop offset="0" stop-color="#666"/><stop offset="0.22" stop-color="gray" stop-opacity="0.83"/><stop offset="0.66" stop-color="#c5c5c5" stop-opacity="0.38"/><stop offset="1" stop-color="#fff" stop-opacity="0"/></radialGradient></defs><title>footer-logo</title><ellipse class="cls-1" cx="174.5" cy="111.5" rx="174.5" ry="9.5"/><path class="cls-2" d="M73.9,46s8.43,7,9,10.21c0,0,8.75-14.75,20.51-18.59,0,0-14.25,3.38-20.49,15.57,0,0-3.9-5.31-9.06-7.19m2.21-4a14.12,14.12,0,0,1,6.6,5.9C88.42,34.37,110,32.2,110,32.2c-2.86.78-4.81,8.14-4.81,8.14-.54,3-3.3,8.36-3.3,8.36C95,59.33,85.56,58.15,85.56,58.15,69,58.15,71.09,37.83,71.09,37.83c.06,1.62,5,4.17,5,4.17"/><path class="cls-2" d="M134.31,49.07a9.48,9.48,0,0,1-3.25,6.76,12.06,12.06,0,0,1-7.76,2.36q-5.61,0-8.56-3.38t-3-9.56q0-6.47,3-9.7t8.91-3.38a11.34,11.34,0,0,1,7.55,2.36,9.23,9.23,0,0,1,3,6.47h-3.08a2.5,2.5,0,0,1-2.44-1.51,7.08,7.08,0,0,0-1.22-1.66,6.2,6.2,0,0,0-3.81-1.08,6.27,6.27,0,0,0-5.1,2.16q-1.73,2.18-1.73,6.35a9.74,9.74,0,0,0,1.73,6.2,5.78,5.78,0,0,0,5,2.23,6.11,6.11,0,0,0,3.81-1.15,6,6,0,0,0,1.94-3.45h5Zm7.64-5.82a6.63,6.63,0,0,0-1.37,4.92q.14,3.27,1.22,4.56a3.25,3.25,0,0,0,1.51,1,3.43,3.43,0,0,0,2.19.07,3.69,3.69,0,0,0,2-1.62,8.08,8.08,0,0,0,.94-4.17,7.32,7.32,0,0,0-.83-3.88,3.81,3.81,0,0,0-1.91-1.67,3.5,3.5,0,0,0-2.16,0,3.74,3.74,0,0,0-1.58.83m-3.45,12.65a7.08,7.08,0,0,1-2.16-3.48,16.06,16.06,0,0,1-.65-4.56,14.46,14.46,0,0,1,.54-3.88,8,8,0,0,1,1.69-3.25,7.46,7.46,0,0,1,4.82-2.55,11.1,11.1,0,0,1,5.31.47,7.33,7.33,0,0,1,4,3.76,11.93,11.93,0,0,1,1.22,5.53,13.75,13.75,0,0,1-.5,4,10.18,10.18,0,0,1-1.3,2.8,7.17,7.17,0,0,1-4.38,3,9.77,9.77,0,0,1-4.78.11,8.25,8.25,0,0,1-3.84-1.83m33,1.73H169a2.34,2.34,0,0,1-2.44-2.23q0-.11,0-.21V45.39a3,3,0,0,0-1-2.52,3.77,3.77,0,0,0-2.34-.79,3.62,3.62,0,0,0-2.32.8,3,3,0,0,0-1,2.5V57.61h-5V46.4q0-4.89,2.55-6.54a11.15,11.15,0,0,1,5.64-1.8,10.82,10.82,0,0,1,5.82,1.66q2.66,1.66,2.66,6.69V57.62h0Zm10,0a37.24,37.24,0,0,1-5.14-.07q-2.77-.22-2.77-3.52V32.9h2.59a2.28,2.28,0,0,1,1.65.72,2.36,2.36,0,0,1,.71,1.73v3.25h3v1a2.32,2.32,0,0,1-.72,1.77,2.41,2.41,0,0,1-1.73.68h-.5V52.67q0,1.23,1.44,1.22h1.51v3.74h0ZM193.76,48a13.57,13.57,0,0,1-2.81.94l-1.65.36a4.26,4.26,0,0,0-1.89.93,2.93,2.93,0,0,0-.5,1.58,2.33,2.33,0,0,0,.65,1.73,2.63,2.63,0,0,0,1.87.58,4,4,0,0,0,4.31-4.31V48h0Zm1.15,8.85a8.89,8.89,0,0,1-3.2,1,28.73,28.73,0,0,1-3,.18,7.54,7.54,0,0,1-4.53-1.4q-1.94-1.4-1.94-4.64,0-3,1.77-4.31a10.19,10.19,0,0,1,4.49-1.73,4.19,4.19,0,0,0,.86-.11,10.92,10.92,0,0,1,1.15-.18q3.16-.43,3.16-1.87a1.36,1.36,0,0,0-1.11-1.4,7.38,7.38,0,0,0-2-.32,5.24,5.24,0,0,0-1.8.3,2,2,0,0,0-1.15,1.08h-4.84a5.53,5.53,0,0,1,2-3.69,8.3,8.3,0,0,1,5.53-1.65,10.83,10.83,0,0,1,6,1.37,4.62,4.62,0,0,1,2.09,4V50a8.26,8.26,0,0,1-1,4.49,6.38,6.38,0,0,1-2.48,2.34m16.77-19-3.45,10.49h6.9Zm-1.15-5h4l9,24.73h-5.39l-1.65-5.1h-9.63l-1.58,5.1h-5.39l8.19-23.07a2.41,2.41,0,0,1,2.44-1.66m14.9,24.73V53.81l10.29-11.37h-7.27a2.41,2.41,0,0,1-1.73-.68,2.23,2.23,0,0,1-.71-1.68V38.5h15.67v4.1L231.53,53.45H242v4.17H225.41ZM260.22,38.5V49.71q0,5.1-2.66,6.69A11.19,11.19,0,0,1,251.73,58a11.55,11.55,0,0,1-5.64-1.72q-2.55-1.58-2.55-6.54V38.51h5V50.72a3,3,0,0,0,1,2.51,3.61,3.61,0,0,0,2.3.79,3.76,3.76,0,0,0,2.34-.79,3,3,0,0,0,1-2.51V40.95a2.42,2.42,0,0,1,.68-1.73,2.32,2.32,0,0,1,1.77-.72h2.52ZM262,32.9h2.59a2.42,2.42,0,0,1,1.73.7,2.24,2.24,0,0,1,.72,1.69V57.64h-5V32.9h0Z"/></svg>