<svg id="Camada_1" data-name="Camada 1" xmlns="http://www.w3.org/2000/svg" viewBox="0 0 664.31 88.2"><defs><style>.cls-1{fill:#2687e9;}</style></defs><title>contaazul-logo-sem-bg</title><path class="cls-1" d="M33.27,80.2S61.85,104,63.91,114.81c0,0,29.67-50,69.52-63,0,0-48.3,11.47-69.44,52.77,0,0-13.21-18-30.72-24.36m7.48-13.64c14.51,5.44,22.37,20,22.37,20,19.34-45.94,92.48-53.29,92.48-53.29-9.68,2.63-16.31,27.6-16.31,27.6C137.47,71.1,128.1,89.23,128.1,89.23c-23.27,36-55.31,32-55.31,32-56.22,0-49.05-68.86-49.05-68.86,0.22,5.49,17,14.15,17,14.15" transform="translate(-23.44 -33.21)"/><path class="cls-1" d="M238,90.46q-1.22,14.62-11,22.91-10,8-26.31,8-19,0-29-11.45-10-11-10-32.41,0-21.93,10.23-32.89,10.47-11.45,30.21-11.45,16.08,0,25.58,8,9,7.8,10.23,21.93H227.51a8.48,8.48,0,0,1-8.28-5.12,24,24,0,0,0-4.14-5.61q-4.88-3.65-12.91-3.65-11.21,0-17.3,7.31Q179,63.42,179,77.55q0,13.65,5.85,21,5.6,7.55,16.81,7.55,7.79,0,12.91-3.9,4.63-3.65,6.58-11.7H238Zm25.89-19.73q-5.12,5.61-4.63,16.69t4.14,15.47a11,11,0,0,0,5.12,3.29,11.63,11.63,0,0,0,7.43.25q3.78-1.1,6.71-5.48t3.17-14.13q0-8.77-2.8-13.16T276.54,68a11.86,11.86,0,0,0-7.31-.12,12.66,12.66,0,0,0-5.36,2.8m-11.7,42.88a24,24,0,0,1-7.31-11.81,54.44,54.44,0,0,1-2.19-15.47,49,49,0,0,1,1.83-13.16,27.18,27.18,0,0,1,5.73-11,25.3,25.3,0,0,1,16.33-8.65,37.61,37.61,0,0,1,18,1.58A24.84,24.84,0,0,1,298.22,67.8a40.44,40.44,0,0,1,4.14,18.76,46.61,46.61,0,0,1-1.7,13.4,34.49,34.49,0,0,1-4.39,9.5,24.31,24.31,0,0,1-14.86,10,33.13,33.13,0,0,1-16.2.37q-8.17-1.82-13-6.21m111.9,5.85h-8.53a7.93,7.93,0,0,1-8.28-8.28V78q0-5.85-3.53-8.53a12.79,12.79,0,0,0-7.92-2.68A12.27,12.27,0,0,0,328,69.51Q324.6,72.19,324.6,78v41.42H307.54v-38q0-16.56,8.65-22.17a37.8,37.8,0,0,1,19.13-6.09,36.67,36.67,0,0,1,19.74,5.61q9,5.61,9,22.66v38h0Zm33.92,0a126.22,126.22,0,0,1-17.42-.24q-9.38-.73-9.38-11.94V35.64H380a7.72,7.72,0,0,1,5.6,2.43A8,8,0,0,1,388,43.93v11h10V58.3a7.87,7.87,0,0,1-2.44,6,8.18,8.18,0,0,1-5.85,2.31H388v36.06c0,2.77,1.62,4.15,4.87,4.15H398v12.67h0Zm41.48-32.65A46,46,0,0,1,430,90l-5.6,1.22A14.44,14.44,0,0,0,418,94.36a9.94,9.94,0,0,0-1.71,5.36,7.9,7.9,0,0,0,2.2,5.85q2.19,2,6.33,1.95,6.82,0,10.72-3.9t3.9-10.72V86.81h0Zm3.9,30a30.12,30.12,0,0,1-10.85,3.29,97.38,97.38,0,0,1-10.11.61,25.55,25.55,0,0,1-15.35-4.75q-6.58-4.75-6.58-15.71,0-10.23,6-14.62t15.23-5.85a14.2,14.2,0,0,0,2.92-.36c1.13-.25,2.44-0.45,3.9-0.61q10.72-1.46,10.72-6.33,0-3.65-3.77-4.75a25,25,0,0,0-6.94-1.1,17.76,17.76,0,0,0-6.09,1,6.64,6.64,0,0,0-3.9,3.65H402.2A18.76,18.76,0,0,1,409,58.79q6.58-5.6,18.76-5.6,13.64,0,20.47,4.63a15.65,15.65,0,0,1,7.07,13.65V93.63q0,9.75-3.53,15.23a21.63,21.63,0,0,1-8.41,7.92M500.2,52.45L488.51,88H511.9Zm-3.9-16.81h13.64l30.46,83.82H522.13l-5.6-17.3H483.88l-5.36,17.3H460.24L488,41.25a8.18,8.18,0,0,1,8.28-5.61m50.5,83.81V106.54L581.64,68H557a8.18,8.18,0,0,1-5.85-2.31A7.57,7.57,0,0,1,548.75,60V54.65h53.12V68.53l-34.35,36.79h35.57v14.13H546.8Zm118-64.81v38q0,17.3-9,22.66A37.94,37.94,0,0,1,636,120.67a39.14,39.14,0,0,1-19.13-5.84q-8.65-5.36-8.65-22.17v-38h17.06V96.07q0,5.85,3.41,8.52a12.24,12.24,0,0,0,7.8,2.68,12.75,12.75,0,0,0,7.92-2.68q3.53-2.68,3.53-8.52V62.93a8.19,8.19,0,0,1,2.31-5.85,7.87,7.87,0,0,1,6-2.44h8.53Zm5.9-19h8.77A8.19,8.19,0,0,1,685.31,38a7.6,7.6,0,0,1,2.44,5.73v75.77H670.69V35.64h0Z" transform="translate(-23.44 -33.21)"/></svg>