<svg id="Camada_1" data-name="Camada 1" xmlns="http://www.w3.org/2000/svg" xmlns:xlink="http://www.w3.org/1999/xlink" viewBox="0 0 468 642"><defs><style>.cls-1{opacity:0.5;fill:url(#Gradiente_sem_nome_16);}.cls-2{fill-rule:evenodd;}.cls-3{font-size:11.01px;letter-spacing:-0.05em;}.cls-3,.cls-4{font-family:Superclarendon-Regular, Superclarendon;}.cls-4{font-size:30.07px;letter-spacing:-0.05em;}</style><radialGradient id="Gradiente_sem_nome_16" cx="44.78" cy="435.49" r="80.97" gradientTransform="translate(107.69 248.63) scale(2.87 0.58)" gradientUnits="userSpaceOnUse"><stop offset="0"/><stop offset="1" stop-color="#fff" stop-opacity="0"/></radialGradient></defs><title>transparentLogo</title><ellipse class="cls-1" cx="235.99" cy="503.3" rx="232.01" ry="47.35"/><path d="M361.52,345.48a1.53,1.53,0,0,1-.56-.11l-13.75-5a1.64,1.64,0,1,1,1.11-3.09l13.75,5a1.65,1.65,0,0,1-.55,3.2Z"/><path d="M357.66,355.12A1.72,1.72,0,0,1,357,355l-13.35-6a1.65,1.65,0,0,1,1.35-3l13.36,6a1.65,1.65,0,0,1-.68,3.15Z"/><path d="M353.14,364.48a1.67,1.67,0,0,1-.78-.2l-12.9-6.94a1.65,1.65,0,0,1,1.57-2.91l12.9,7a1.64,1.64,0,0,1-.79,3.1Z"/><path d="M347.79,373.39a1.62,1.62,0,0,1-.88-.25l-12.35-7.86a1.65,1.65,0,0,1,1.76-2.78l12.34,7.86a1.65,1.65,0,0,1-.88,3Z"/><path d="M341.88,381.93a1.64,1.64,0,0,1-1-.32l-11.74-8.73a1.64,1.64,0,1,1,2-2.63L342.86,379a1.64,1.64,0,0,1-1,3Z"/><path d="M335.43,390.08a1.66,1.66,0,0,1-1.07-.41l-11.1-9.55a1.65,1.65,0,1,1,2.15-2.5l11.09,9.55a1.64,1.64,0,0,1-1.07,2.9Z"/><path d="M328.44,397.77a1.65,1.65,0,0,1-1.16-.49L316.89,387a1.66,1.66,0,0,1,0-2.33,1.63,1.63,0,0,1,2.32,0l10.39,10.32a1.65,1.65,0,0,1-1.16,2.82Z"/><path d="M320.77,404.78a1.67,1.67,0,0,1-1.24-.55l-9.61-11A1.64,1.64,0,0,1,312.4,391l9.61,11a1.63,1.63,0,0,1-.16,2.32,1.67,1.67,0,0,1-1.09.39Z"/><path d="M123,396.48a1.64,1.64,0,0,1-1.15-2.82l10.51-10.19a1.64,1.64,0,1,1,2.29,2.36L124.18,396a1.63,1.63,0,0,1-1.14.46Z"/><path d="M116,388.79a1.65,1.65,0,0,1-1.06-2.9l11.21-9.41a1.64,1.64,0,1,1,2.11,2.52L117.1,388.4a1.56,1.56,0,0,1-1.06.39Z"/><path d="M109.73,380.55a1.65,1.65,0,0,1-1-3L120.61,369a1.64,1.64,0,1,1,1.93,2.66l-11.86,8.59a1.64,1.64,0,0,1-1,.32Z"/><path d="M104,371.91a1.64,1.64,0,0,1-.87-3l12.44-7.71a1.65,1.65,0,0,1,1.73,2.8l-12.45,7.71a1.65,1.65,0,0,1-.86.25Z"/><path d="M98.75,362.93a1.65,1.65,0,0,1-.77-3.11l13-6.78a1.64,1.64,0,1,1,1.53,2.91l-13,6.8a1.6,1.6,0,0,1-.76.19Z"/><path d="M94.23,353.55a1.64,1.64,0,0,1-.66-3.15L107,344.56a1.65,1.65,0,0,1,1.3,3l-13.43,5.83a1.69,1.69,0,0,1-.65.13Z"/><path d="M90.52,343.84a1.65,1.65,0,0,1-.54-3.2l13.81-4.84a1.63,1.63,0,0,1,2.1,1,1.65,1.65,0,0,1-1,2.1l-13.82,4.84a1.61,1.61,0,0,1-.55.09Z"/><path d="M110.36,237.37a1.68,1.68,0,0,1-.73-.16l-13.12-6.48a1.64,1.64,0,1,1,1.45-3l13.13,6.47a1.65,1.65,0,0,1,.75,2.2,1.67,1.67,0,0,1-1.48.92Z"/><path d="M114.78,229.15a1.62,1.62,0,0,1-.83-.23l-12.63-7.4a1.65,1.65,0,0,1,1.66-2.84l12.63,7.41a1.65,1.65,0,0,1-.84,3.06Z"/><path d="M119.71,221.22a1.67,1.67,0,0,1-.94-.29l-12.06-8.3a1.65,1.65,0,0,1,1.87-2.71l12.06,8.3a1.65,1.65,0,0,1-.93,3Z"/><path d="M125.3,213.75a1.64,1.64,0,0,1-1-.37l-11.43-9.14a1.65,1.65,0,0,1,2.06-2.58l11.43,9.15a1.65,1.65,0,0,1-1,2.94Z"/><path d="M131.44,206.71a1.65,1.65,0,0,1-1.11-.44l-10.74-9.94a1.65,1.65,0,1,1,2.24-2.41l10.74,9.94a1.65,1.65,0,0,1-1.12,2.85Z"/><path d="M340.65,237.37a1.69,1.69,0,0,0,.73-.16l13.14-6.48a1.65,1.65,0,1,0-1.46-3l-13.13,6.47a1.65,1.65,0,0,0,.72,3.12Z"/><path d="M336.24,229.15a1.63,1.63,0,0,0,.83-.23l12.63-7.4a1.65,1.65,0,0,0-1.65-2.84l-12.64,7.41a1.64,1.64,0,0,0,.83,3.06Z"/><path d="M331.31,221.22a1.63,1.63,0,0,0,.93-.29l12.06-8.3a1.65,1.65,0,0,0-1.87-2.71l-12.06,8.3a1.65,1.65,0,0,0,.94,3Z"/><path d="M325.71,213.75a1.65,1.65,0,0,0,1-.37l11.43-9.14a1.65,1.65,0,0,0-2-2.58l-11.44,9.15a1.66,1.66,0,0,0-.25,2.32,1.64,1.64,0,0,0,1.29.62Z"/><path d="M319.58,206.71a1.65,1.65,0,0,0,1.11-.44l10.75-9.94a1.65,1.65,0,0,0-2.24-2.41l-10.75,9.94a1.65,1.65,0,0,0,1.13,2.85Z"/><path d="M170.53,408.85a14.87,14.87,0,0,1-3.85,4.1,15.07,15.07,0,0,1-4.92,2.61,24.26,24.26,0,0,1-2.89.57,39.92,39.92,0,0,1-5.81.43h-1.23c-.87,0-1.35.14-1.45.3-.2.32.45,1.47,1.91,3.41a31.68,31.68,0,0,0,3.12,3.7,3.87,3.87,0,0,0,.56.39l.74.44.68.41a2.62,2.62,0,0,1,.65.54,4.79,4.79,0,0,1-1.32,0l-1.85-.19-2.4.42a1.8,1.8,0,0,1-1.16,0c-.63-.37-1.25-1.69-1.87-3.94s-1.58-3.78-2.9-4.56a4.44,4.44,0,0,0-2.95-.51,5.22,5.22,0,0,1-2,.08c-.32-.19-.36-.51-.09-.95s.94-.53,2.29-.68c.88-.11,1.75-.21,2.61-.27-1-1.78-1.88-3.56-2.69-5.33a19.12,19.12,0,0,1-1.56-5.71,16.65,16.65,0,0,1,.2-5.18,14.43,14.43,0,0,1,1.82-4.73,11.73,11.73,0,0,1,4.55-4.67,36.09,36.09,0,0,1,5.16-1.59c.87-.22,3-.58,6.25-1.06,4.09-.6,6.41-.72,7-.41s1.12,1.32,1.89,3.08a50.18,50.18,0,0,1,2.72,8.4,17.31,17.31,0,0,1,.58,5.84A12.33,12.33,0,0,1,170.53,408.85Zm-9.22-.27a14.65,14.65,0,0,0,1.67-4.63,19.86,19.86,0,0,0,.32-5.62,21,21,0,0,0-1.83-6.25q-.54-1.33-1.66-3.55c-.47-.28-1.53.18-3.2,1.4a13.37,13.37,0,0,0-2.94,2.55,16.07,16.07,0,0,0-2.27,7.1,23.31,23.31,0,0,0,.71,7.2q.39,1.67,2.22,7.65a9.47,9.47,0,0,0,4.37-2.67A16.09,16.09,0,0,0,161.31,408.58Z"/><path d="M192.94,431.43c-.09.31-1,.63-2.64,1a12.9,12.9,0,0,1-2.88.41c-.37-.11-.71-.55-1-1.25s-.64-1.46-.94-2.22a12.93,12.93,0,0,0-3.28.48,16.33,16.33,0,0,1-3.18.51c-.4-.12-.77-.66-1.12-1.6a4.09,4.09,0,0,1-.16-2.66l4.48-15.27a3.7,3.7,0,0,0,0-1.34c-.07-.64-.14-1.33-.19-2a1.16,1.16,0,0,0,.35-.19,10.49,10.49,0,0,1,1.24-.68c.52-.27,1-.59,1.56-.89a4.53,4.53,0,0,1,1.75-.73c.28.08.68.7,1.19,1.85a5.31,5.31,0,0,1,.5,3.74l-4.49,15.24a1.58,1.58,0,0,0,.24,1.29,1.69,1.69,0,0,0,.83.82.67.67,0,0,0,.4,0,1.61,1.61,0,0,1,.32-.08L192,407.13l6.27,1.84-5.82,19.78a2.35,2.35,0,0,0,.14,1.72A3.73,3.73,0,0,1,192.94,431.43Z"/><path d="M221.21,435.38c0,.22-.73.72-2.1,1.49a9.31,9.31,0,0,1-2.4,1.12c-.48,0-1-.56-1.45-1.51-.16-.35-.4-.88-.72-1.6a11.13,11.13,0,0,0-2.53,1,16.29,16.29,0,0,1-2.85,1.29c-.25,0-.65-.44-1.18-1.25a10.94,10.94,0,0,1-1.61-7.19,11.86,11.86,0,0,1,.64-3.11,12.36,12.36,0,0,1,2.43-3.33,9.68,9.68,0,0,1,4.26-2.59c1.38-.45,2.09-.87,2.13-1.28.05-.68-.38-1.39-1.3-2.16a5.31,5.31,0,0,0-1.85-1.2,6.75,6.75,0,0,0-1.12.19,5.29,5.29,0,0,1-1.5.16,2.9,2.9,0,0,1-1.32-.46,1.07,1.07,0,0,1-.55-1.05c.05-.6.36-.88.93-.83a9.22,9.22,0,0,1,1.17.34,1.76,1.76,0,0,0,.52.16,7.77,7.77,0,0,0,2.64-.63c1.25-.47,2.53-1,3.82-1.5.51.05,1.41.73,2.7,2.06q2.19,2.25,2,3.82l-1.46,16.17a3.26,3.26,0,0,0,.29,1.07A5.85,5.85,0,0,0,221.21,435.38Zm-6.81-2.67.88-11.42a4.12,4.12,0,0,0-2.46,2.1,7.17,7.17,0,0,0-1.14,2.89,10.45,10.45,0,0,0,.55,4.24c.49,1.51,1,2.27,1.49,2.32A3.14,3.14,0,0,1,214.41,432.72Z"/><path d="M240.92,437.24l-6.38.44-2.13-30.9a48.6,48.6,0,0,1,6.19-3.2Z"/><path d="M255.52,404.2a4.5,4.5,0,0,1-1.2,2.25,5.09,5.09,0,0,1-2.78,1.64,5,5,0,0,1-2-.08q-1.14-.24-1.29-1c-.05-.24.27-.83,1-1.76s1.24-1.42,1.63-1.5a.89.89,0,0,1,.83.21C252.26,404.54,253.56,404.59,255.52,404.2Zm6.65,29.75-6.58,1.35-4.11-20a1.35,1.35,0,0,0-.4-.62,8,8,0,0,0-1.13-.91,21.21,21.21,0,0,1,1.89-2.55,9.58,9.58,0,0,1,2-2.22c.47-.11,1.24.53,2.34,1.88a9,9,0,0,1,1.85,3.06Z"/><path d="M283,424.14c.09.24-.38,1-1.42,2.35a8.29,8.29,0,0,1-2,2.17c-.51.18-1.21,0-2.09-.65a4.24,4.24,0,0,1-1.64-1.82L269,407l-2.61.93-.74-2.06a9.46,9.46,0,0,0,5.68-8.67l.63-.22,1.67,4.69c.18.5.68.77,1.51.82l.75,2.06-1,.34L281,421.92a3.45,3.45,0,0,0,1.11,1.43C282.73,423.86,283,424.12,283,424.14Z"/><path d="M300.91,396.85a24,24,0,0,1,2.26,5.82,22.21,22.21,0,0,1,.73,6.52c-.14,2.91-.28,4.78-.42,5.62a43.29,43.29,0,0,0-1.25,5.27,5.39,5.39,0,0,0-.43,1.94,3.5,3.5,0,0,0,.46,1.88,3.41,3.41,0,0,0,.83,1l1,.79c.1.2-.16.77-.82,1.77-.54.83-1.11,1.74-1.69,2.73a3.7,3.7,0,0,1-1.35-.75,5.63,5.63,0,0,1-.92-1.22,5.86,5.86,0,0,1,.08-5.69c1-2.11,1.37-3.38,1.11-3.82A25.4,25.4,0,0,1,297,417a22.24,22.24,0,0,1-4.15-3.19,24.27,24.27,0,0,1-2.33-2.42,15.7,15.7,0,0,1-1.42-2.1c-.19-.33-.38-.67-.58-1l-.59-1.07c-.5-.88-1-1.79-1.52-2.73a18.15,18.15,0,0,1-1.31-3c-.29-.78.16-1.62,1.37-2.52a7.23,7.23,0,0,0,2.25-2.33l.58-.32a9.41,9.41,0,0,1,.63.9,10.09,10.09,0,0,1,.59,1.36,29.59,29.59,0,0,0,1.64,3.56,33.12,33.12,0,0,0,3.65,5.18,18,18,0,0,0,5.72,4.65c.49-.6.44-2-.16-4.21a25.31,25.31,0,0,0-2.33-5.78,19.86,19.86,0,0,0-3.2-4c-1.71-1.59-2.93-2.76-3.69-3.51l.18-.44,4.16-2.36a8.26,8.26,0,0,1,1.89,1.65A17.91,17.91,0,0,1,300.91,396.85Z"/><path d="M159.48,171.2a14.5,14.5,0,0,1,2.56,6.73,13.76,13.76,0,0,1-.11,4.7,34.94,34.94,0,0,1-1.78,5.66q-1.86,4.89-3.18,5.82a11.5,11.5,0,0,1-3.89,1,20.57,20.57,0,0,1-8.25-.42,14.53,14.53,0,0,1-8.36-5.76,11.26,11.26,0,0,1-1.25-2.22,22.26,22.26,0,0,1-1-3.37,18.26,18.26,0,0,1-.46-3.24,12.15,12.15,0,0,1,.28-3.12,36,36,0,0,1,1.54-5.45q.78-2,1.37-3.46c.28-.82.5-1.42.65-1.8a6.49,6.49,0,0,1,1.08-2.12q.74-.52,5.32-.17a25.59,25.59,0,0,1,6.92,1.26,22.5,22.5,0,0,1,4,2A15.15,15.15,0,0,1,159.48,171.2Zm-3.85,8.34a19.14,19.14,0,0,0-6.69-5.48,22.47,22.47,0,0,0-11.71-2.81,16.41,16.41,0,0,0,.07,4.65,10.6,10.6,0,0,0,1.82,3.95,19.36,19.36,0,0,0,6.88,5.59,23.13,23.13,0,0,0,12.09,2.77C158.68,185.58,157.87,182.69,155.63,179.54Z"/><path d="M179.43,157.46a3.16,3.16,0,0,1-.27,1.71c-.6,1.72-1,2.63-1.29,2.74s-.52,0-1-.3a6.5,6.5,0,0,0-1.93-.71l7.79,19.18-6.14,2.5-7.78-19.2a2.53,2.53,0,0,0-.92-.91,4.2,4.2,0,0,0-1.31-.65,7.77,7.77,0,0,1,1.14-2.47,5.58,5.58,0,0,1,1.77-2.17,2.36,2.36,0,0,1,1.67.31c.76.35,1.54.69,2.32,1,.24-.1.6-.74,1.1-1.91a13.08,13.08,0,0,1,.84-1.81,11.24,11.24,0,0,1,1.7.49A4.21,4.21,0,0,1,179.43,157.46Z"/><path d="M195.85,144.44a4.42,4.42,0,0,1-1.15,2.28,5.08,5.08,0,0,1-2.73,1.71,4.91,4.91,0,0,1-2,0c-.77-.14-1.21-.46-1.32-.93-.07-.24.24-.83.91-1.77s1.2-1.46,1.61-1.55a.92.92,0,0,1,.83.2C192.6,144.87,193.89,144.89,195.85,144.44ZM203.23,174l-6.56,1.51-4.6-19.89a1.37,1.37,0,0,0-.41-.62,10.08,10.08,0,0,0-1.16-.88,22.07,22.07,0,0,1,1.83-2.58,9.9,9.9,0,0,1,2-2.28c.47-.1,1.26.5,2.38,1.83a8.84,8.84,0,0,1,1.92,3Z"/><path d="M229.5,172.39c.09,1.68-.85,3.36-2.81,5a10.08,10.08,0,0,1-6,2.67,9.13,9.13,0,0,1-3.46-.54c-1.19-.41-1.82-.94-1.85-1.58a11.5,11.5,0,0,1,.79-1.23,3.12,3.12,0,0,1,2.18-1.31,13.22,13.22,0,0,0,1.78,2,3.06,3.06,0,0,0,2.28.79,3.4,3.4,0,0,0,2.15-1,2.77,2.77,0,0,0,1-2.22c0-.41-.67-1.43-1.92-3.06s-2-2.43-2.28-2.42a4.56,4.56,0,0,0-1.89,1.24A4.29,4.29,0,0,1,217.3,172c-.67,0-1.87-1.07-3.61-3.29a14.21,14.21,0,0,1-3.33-7.95q-.17-3.47,3.21-8.18a29,29,0,0,1,4.13-4.29c1.95-1.74,3.05-2.62,3.3-2.63,1.33,1,2.31,1.84,2.94,2.37,2,1.71,3,2.84,3,3.38l.87,16.8a3.91,3.91,0,0,0,.8,1.63A5.14,5.14,0,0,1,229.5,172.39ZM221,166.91l-.74-14.24c-.44-.56-.78-1-1-1.24-.77-.86-1.31-1.27-1.59-1.27-.64,0-1.22,1.22-1.77,3.54a10,10,0,0,0-.34,2.55,14.19,14.19,0,0,0,1.69,6C218.56,164.85,219.82,166.39,221,166.91Z"/><path d="M244.57,173.18l-6.68-.81,2.44-20.26a1.28,1.28,0,0,0-.18-.72,8.09,8.09,0,0,0-.79-1.23,24.76,24.76,0,0,1,2.6-1.8,10,10,0,0,1,2.65-1.46c.48.05,1,.9,1.61,2.53a8.9,8.9,0,0,1,.79,3.49Zm3.13-30.33a4.47,4.47,0,0,1-1.85,1.75,5,5,0,0,1-3.15.68,4.94,4.94,0,0,1-1.92-.71c-.67-.4-1-.83-.92-1.31,0-.25.52-.7,1.46-1.36a3.72,3.72,0,0,1,2-.91.91.91,0,0,1,.72.47C244.49,142.15,245.7,142.62,247.69,142.85Z"/><path d="M270.47,176.45c-.1.36-1,.86-2.65,1.49a8.51,8.51,0,0,1-2.89.83c-.25-.07-.57-.71-1-1.89a5.16,5.16,0,0,1-.39-3l4.38-14.5a4.22,4.22,0,0,0,0-1.77c-.11-.75-.37-1.19-.8-1.32a.94.94,0,0,0-.83.25,1.44,1.44,0,0,0-.53.64L260,176.52l-6.35-1.91L259.55,155a2.55,2.55,0,0,0-.15-1.57,5.28,5.28,0,0,1-.33-1c0-.18,1-.46,2.83-.83a13.46,13.46,0,0,1,3.09-.47c.46.14.81.76,1.09,1.89s.52,1.72.73,1.79a12.53,12.53,0,0,0,3.64-.47q3.08-.64,3.16-.61c.37.11.71.64,1,1.6a5.52,5.52,0,0,1,.08,3.37l-4.4,14.55a3.6,3.6,0,0,0-.08,1.4C270.31,175.27,270.38,175.85,270.47,176.45Z"/><path d="M290.74,187.3c-.1.19-.94.38-2.5.55a9.45,9.45,0,0,1-2.66.1c-.41-.24-.66-.89-.73-2,0-.37,0-1,0-1.75a11.36,11.36,0,0,0-2.7-.1,16.54,16.54,0,0,1-3.11.06c-.23-.12-.43-.66-.6-1.61a10.9,10.9,0,0,1,1.33-7.24,11.53,11.53,0,0,1,1.82-2.61,12.35,12.35,0,0,1,3.52-2.1,9.46,9.46,0,0,1,4.94-.71c1.46.12,2.27,0,2.46-.37a2.74,2.74,0,0,0-.35-2.48,5,5,0,0,0-1.23-1.83,6,6,0,0,0-1.11-.27,5,5,0,0,1-1.44-.45,2.79,2.79,0,0,1-1-.94,1.08,1.08,0,0,1-.1-1.19.78.78,0,0,1,1.19-.39,5.37,5.37,0,0,1,.93.77,2.29,2.29,0,0,0,.42.33,7.27,7.27,0,0,0,2.67.45c1.35.07,2.71.11,4.11.13.45.25,1,1.23,1.66,3,.77,2,.89,3.4.39,4.32l-7.67,14.31a3.93,3.93,0,0,0-.15,1.11A8.43,8.43,0,0,0,290.74,187.3Zm-5.2-5.12L290.82,172a4.13,4.13,0,0,0-3.1,1,7.34,7.34,0,0,0-2.18,2.22,10.6,10.6,0,0,0-1.16,4.12c-.13,1.57,0,2.47.47,2.71A3.7,3.7,0,0,1,285.54,182.19Z"/><path d="M301.18,198.07l-5.07-3.88,18.8-24.61a28.93,28.93,0,0,1,3.29.69,28.09,28.09,0,0,1,3.47,1Z"/><path d="M135.46,288.55a25.88,25.88,0,0,1,6.23,8.42,24.79,24.79,0,0,1-.14,20.82,27.36,27.36,0,0,1-6.44,8.6,30.74,30.74,0,0,1-9.56,5.8,32,32,0,0,1-11.71,2.12H65.37V316.86h9.69V264.5H65.37V247h48.48a29.88,29.88,0,0,1,10.95,2,28.85,28.85,0,0,1,8.93,5.42,25.86,25.86,0,0,1,6,8,22.93,22.93,0,0,1,.48,18.58A26.46,26.46,0,0,1,135.46,288.55Zm-21.61,37.91a22.86,22.86,0,0,0,8.31-1.51,21.57,21.57,0,0,0,6.79-4.11,19.26,19.26,0,0,0,4.57-6.1,17.18,17.18,0,0,0,1.66-7.48,17.7,17.7,0,0,0-6-13.33l-.55-.5a14.44,14.44,0,0,0-3-2.12c-1-.49-1.87-1-2.69-1.36-1-.34-1.94-.67-2.77-1,.92-.41,1.89-.83,2.91-1.25a24.9,24.9,0,0,0,2.5-1.44,14.46,14.46,0,0,0,2.35-1.92l.83-.88a19,19,0,0,0,3.25-5.17,15.2,15.2,0,0,0,1.17-5.93,15.61,15.61,0,0,0-1.52-6.8,17.92,17.92,0,0,0-4.15-5.55,20.06,20.06,0,0,0-6.17-3.74,20.75,20.75,0,0,0-7.54-1.37H74.1v1.75h9.69V324.7H74.1v1.76Zm17.45-54.11a13.81,13.81,0,0,1-1.39,6.11,15.87,15.87,0,0,1-3.74,5,17.93,17.93,0,0,1-5.54,3.37,18.41,18.41,0,0,1-6.78,1.25H85.73V256.64h28.12a18.47,18.47,0,0,1,6.78,1.25,18.11,18.11,0,0,1,5.54,3.37,16,16,0,0,1,3.74,5A13.79,13.79,0,0,1,131.3,272.35ZM113.85,289.8a20.61,20.61,0,0,1,7.54,1.37,20.08,20.08,0,0,1,6.17,3.74,18,18,0,0,1,4.15,5.55,15.93,15.93,0,0,1,0,13.58,17.63,17.63,0,0,1-4.15,5.55,20,20,0,0,1-6.17,3.74,20.57,20.57,0,0,1-7.54,1.36H85.73V289.8Zm-19.39-9.6h19.39A8.85,8.85,0,0,0,120,277.9a7.28,7.28,0,0,0,0-11.09,8.85,8.85,0,0,0-6.16-2.31H94.46Zm19.39,36.66a10.82,10.82,0,0,0,7.54-2.82,9,9,0,0,0,0-13.58,10.87,10.87,0,0,0-7.54-2.8H94.46v19.2Z"/><path d="M200,273.22V264.5H180.6v17.45H200V299.4H180.6v17.46H200v-8.73h19.39v26.18H151.53V316.86h9.69V264.5h-9.69V247h67.87v26.17Zm8.72-16.58v8.72h1.95V254.9H160.25v1.75h9.69V324.7h-9.69v1.76h50.42V316h-1.95v8.72H171.88V291.54h19.39V289.8H171.88V256.64Z"/><path d="M276.59,273.22V264.5H257.2v17.45h19.39V299.4H257.2v17.46h19.39v-8.73H296v26.18H228.11V316.86h9.7V264.5h-9.7V247H296v26.17Zm8.73-16.58v8.72h1.94V254.9H236.84v1.75h9.7V324.7h-9.7v1.76h50.42V316h-1.94v8.72H248.48V291.54h19.39V289.8H248.48V256.64Z"/><path d="M391,316.86v17.45H352.21V316.86h7.89l-8.86-14H333.79v14h9.7v17.45H304.71V316.86h9.7V264.5h-9.7V247h46a33.14,33.14,0,0,1,21.61,8.35,28.05,28.05,0,0,1,6.57,8.79A24.58,24.58,0,0,1,381.3,275a24.28,24.28,0,0,1-3.19,12.22,31.67,31.67,0,0,1-8.45,9.6l12.88,20.07Zm-8.73,7.84h-4.84L357.9,293.92a10.32,10.32,0,0,0,1.8-.76,33.3,33.3,0,0,0,3.59-1.87l1-.74a19.86,19.86,0,0,0,6.16-6.92,18.17,18.17,0,0,0,2.15-8.67,17.67,17.67,0,0,0-1.73-7.73,20.94,20.94,0,0,0-4.71-6.35,22.88,22.88,0,0,0-6.93-4.36,22.13,22.13,0,0,0-8.51-1.62H313.43v1.75h9.7V324.7h-9.7v1.76h21.33V324.7h-9.68V295h24.79c1,0,2.09,0,3.26-.13a11.52,11.52,0,0,0,2.84-.49L375.2,324.7H360.95v1.76h21.32ZM370.64,275a16.42,16.42,0,0,1-1.59,7.11,18.42,18.42,0,0,1-4.37,5.86,20.4,20.4,0,0,1-6.51,3.92,21.84,21.84,0,0,1-7.89,1.43H325.07V256.64h25.21a22,22,0,0,1,7.89,1.43,20.59,20.59,0,0,1,6.51,3.94,18.46,18.46,0,0,1,4.37,5.85A16.44,16.44,0,0,1,370.64,275Zm-20.36,10.47a11.9,11.9,0,0,0,8.25-3.05,9.81,9.81,0,0,0,0-14.83,11.89,11.89,0,0,0-8.25-3.06H333.79v20.94Z"/><polygon points="301.06 220.91 299.31 226.18 297.57 220.91 292.01 220.89 296.48 217.6 294.8 212.32 299.31 215.54 303.81 212.32 302.13 217.6 306.59 220.89 301.06 220.91"/><polygon points="144.32 220.91 142.58 226.18 140.83 220.91 135.29 220.89 139.75 217.6 138.06 212.32 142.58 215.54 147.08 212.32 145.41 217.6 149.87 220.89 144.32 220.91"/><path d="M196.77,376.16l-1.44-3.06-2.05-4.35c-.17-.38-.35-.76-.53-1.13h-12l5,5.86-5,5.36h17.46l-1.3-2.75A.78.78,0,0,0,196.77,376.16Z"/><path d="M271.93,367.62H260c-.18.37-.35.74-.52,1.13q-1,2.17-2.05,4.35L256,376.16a.75.75,0,0,0-.18-.07c-.44.91-.87,1.84-1.31,2.75h17.46L267,373.47Z"/><path d="M201.12,370.61a1.62,1.62,0,0,1,0-.31,3.16,3.16,0,0,1-1.4-2.13,3.5,3.5,0,0,1,0-.86,3.14,3.14,0,0,1-1.07-.75c-.43-.44-.88-.89-1.32-1.32s-.71-.7-1-1.05c-.53.21-1,.39-1.56.61s-1.18.49-1.77.76c.25.53.51,1.06.76,1.61.18.37.35.76.53,1.12.68,1.45,1.37,2.9,2,4.36.48,1,1,2,1.44,3.06l.18-.07c2.05-.88,4.13-1.65,6.19-2.35h0A3.25,3.25,0,0,1,201.12,370.61Z"/><path d="M255.06,375.71c.49-1,1-2,1.44-3.06.68-1.46,1.37-2.9,2.05-4.36.18-.37.36-.76.53-1.12l.76-1.61c-.57-.27-1.18-.51-1.76-.76s-1-.4-1.56-.6l-1.06,1-1.32,1.32a2.91,2.91,0,0,1-.83.64,2.64,2.64,0,0,1,0,.8,3.18,3.18,0,0,1-1.4,2.14c0,.11,0,.2,0,.3a3.27,3.27,0,0,1-3.23,2.69v.13c2.1.7,4.2,1.45,6.28,2.37Z"/><path class="cls-2" d="M205.85,373.38c12.92-3.8,26.61-3.55,40.94,0v6.82c-15.8-3.89-25.78-4.15-40.94,0v-6.82Zm37.84,2.69a.91.91,0,1,1-.94.9.92.92,0,0,1,.94-.9Zm-33.32,0a.9.9,0,1,1-.93.9.92.92,0,0,1,.93-.9Zm7.11-2.25a1.43,1.43,0,0,1,1.46,1.41,1.46,1.46,0,0,1-2.91,0,1.43,1.43,0,0,1,1.45-1.41Zm19.09,0a1.43,1.43,0,0,1,1.46,1.41,1.46,1.46,0,1,1-1.46-1.41Zm-10-1.46a1.85,1.85,0,1,1-1.91,1.85,1.89,1.89,0,0,1,1.91-1.85Zm11.15-22.64c-3,1.4-5.62,2.84-7.69,2.81a4.12,4.12,0,0,0,0-.46,3.48,3.48,0,0,0-7,0c0,.15,0,.3,0,.44-2.12.19-4.84-1.32-8-2.78-7.59-3.57-11.84,3.39-7.88,7a21.73,21.73,0,0,1,3.47,4c1.43,2,3.72-.44,1.57-2.45-3.77-3.54-1.52-8.13,3.06-5.79a17.86,17.86,0,0,0,8.86,2.09,3.71,3.71,0,0,0,.56.41v5.77a2.74,2.74,0,0,1,3.69,0v-5.84a2.34,2.34,0,0,0,.46-.35,17.7,17.7,0,0,0,8.56-2.09c4.57-2.33,6.83,2.25,3.05,5.79-2.14,2,.13,4.5,1.57,2.45a22.35,22.35,0,0,1,3.47-4c4-3.6-.28-10.55-7.88-7Zm20.54,8.07c-.72-4.39-4.31-6-9.65-6.19.66,1.48,1.07,3-.31,4.44,7.54-.61,7.56,3.86,3.41,7.15-1.67,1.32-.09,3.4,1.18,2.12,2.61-2.7,5.74-5.29,5.37-7.52Zm-63.72,0c.72-4.39,4.32-6,9.65-6.19-.67,1.48-1.07,3,.31,4.44-7.55-.61-7.56,3.86-3.42,7.15,1.67,1.32.08,3.4-1.18,2.12-2.6-2.7-5.74-5.29-5.37-7.52Zm54.35,10.72a1,1,0,0,1,.38.13,1.42,1.42,0,0,1-.62-1.4,1.45,1.45,0,0,1,1.68-1.17,1.43,1.43,0,0,1,1.2,1.63,1.46,1.46,0,0,1-1.68,1.15,1.66,1.66,0,0,1-.38-.11,1.38,1.38,0,0,1,.62,1.4,1.46,1.46,0,0,1-1.68,1.16,1.42,1.42,0,0,1-1.2-1.62,1.47,1.47,0,0,1,1.68-1.18Zm-44.73.16a1.29,1.29,0,0,0-.38.12,1.39,1.39,0,0,0,.61-1.4,1.45,1.45,0,0,0-1.68-1.17,1.43,1.43,0,0,0-1.19,1.63,1.46,1.46,0,0,0,1.69,1.15,1.21,1.21,0,0,0,.38-.11,1.4,1.4,0,0,0-.63,1.4,1.46,1.46,0,0,0,1.69,1.17,1.43,1.43,0,0,0,1.19-1.63,1.46,1.46,0,0,0-1.68-1.17Zm7-3.2a1.71,1.71,0,0,0-1.44,2,1.76,1.76,0,0,0,2,1.4,1.69,1.69,0,0,0,1.25-2.51,2.51,2.51,0,0,0,.44,0,1.85,1.85,0,0,0,.42-.13,1.84,1.84,0,0,0,0,.56,1.75,1.75,0,0,0,2,1.4,1.72,1.72,0,0,0,1.45-2,1.77,1.77,0,0,0-2-1.4,1.16,1.16,0,0,0-.42.13,1.67,1.67,0,0,0,0-.58,1.77,1.77,0,0,0-2-1.4,1.72,1.72,0,0,0-1.45,2,1.77,1.77,0,0,0,.2.53,2.05,2.05,0,0,0-.45,0Zm26.48-.68a1.2,1.2,0,0,1,.43.13,1.39,1.39,0,0,1,0-.58,1.76,1.76,0,0,1,2-1.4,1.74,1.74,0,0,1,1.45,2,2,2,0,0,1-.2.53,2,2,0,0,1,.44,0,1.72,1.72,0,0,1,1.44,2,1.76,1.76,0,0,1-2,1.4,1.71,1.71,0,0,1-1.45-2,1.77,1.77,0,0,1,.19-.55,2.45,2.45,0,0,1-.43,0,1.81,1.81,0,0,1-.43-.13,1.43,1.43,0,0,1,0,.56,1.75,1.75,0,0,1-2,1.4,1.71,1.71,0,0,1-1.45-2,1.77,1.77,0,0,1,2-1.4ZM229,363.51a2.07,2.07,0,1,1-2.14,2.07,2,2,0,0,1,0-.21,2.16,2.16,0,0,1-.35,0,3.44,3.44,0,0,1-.5,0,1.59,1.59,0,0,1,0,.23,2.14,2.14,0,1,1-2.14-2.07,3,3,0,0,1,.51.06c0-.07,0-.16,0-.23a2.13,2.13,0,0,1,4.26,0,1.9,1.9,0,0,1,0,.2,2.12,2.12,0,0,1,.35,0Zm2-18.15a1.66,1.66,0,1,1-1.71,1.66,1.7,1.7,0,0,1,1.71-1.66Zm-9.71,0a1.66,1.66,0,1,1-1.71,1.66,1.69,1.69,0,0,1,1.71-1.66Zm5.26-3.2a2.07,2.07,0,1,1-2.13,2.07,2.1,2.1,0,0,1,2.13-2.07Z"/><text class="cls-3" transform="translate(203.04 394.87)">VUE.JS </text><text class="cls-4" transform="translate(156.86 229.15) scale(0.9 1)">API LIST</text></svg>