<svg id="Camada_1" data-name="Camada 1" xmlns="http://www.w3.org/2000/svg" xmlns:xlink="http://www.w3.org/1999/xlink" viewBox="0 0 97 50"><defs><style>.cls-1{fill:url(#Gradiente_sem_nome_37);}.cls-2{fill:url(#Gradiente_sem_nome_2);}.cls-3{fill:url(#Gradiente_sem_nome_3);}.cls-4{fill:url(#Gradiente_sem_nome_5);}.cls-5{fill:url(#Gradiente_sem_nome_5-2);}.cls-6{fill:url(#Gradiente_sem_nome_6);}.cls-7{fill:url(#Gradiente_sem_nome_7);}.cls-8{fill:url(#Gradiente_sem_nome_8);}.cls-9{fill:url(#Gradiente_sem_nome_12);}.cls-10{fill:url(#Gradiente_sem_nome_10);}.cls-11{fill:url(#Gradiente_sem_nome_11);}.cls-12{fill:url(#Gradiente_sem_nome_12-2);}.cls-13{fill:url(#Gradiente_sem_nome_13);}.cls-14{fill:url(#Gradiente_sem_nome_33);}.cls-15{fill:url(#Gradiente_sem_nome_15);}.cls-16{fill:url(#Gradiente_sem_nome_16);}.cls-17{fill:url(#Gradiente_sem_nome_17);}.cls-18{fill:url(#Gradiente_sem_nome_18);}.cls-19{fill:url(#Gradiente_sem_nome_21);}.cls-20{fill:url(#Gradiente_sem_nome_21-2);}.cls-21{fill:url(#Gradiente_sem_nome_21-3);}.cls-22{fill:url(#Gradiente_sem_nome_23);}.cls-23{fill:url(#Gradiente_sem_nome_23-2);}.cls-24{fill:url(#Gradiente_sem_nome_24);}.cls-25{fill:url(#Gradiente_sem_nome_25);}.cls-26{fill:url(#Gradiente_sem_nome_27);}.cls-27{fill:url(#Gradiente_sem_nome_27-2);}.cls-28{fill:url(#Gradiente_sem_nome_36);}.cls-29{fill:url(#Gradiente_sem_nome_36-2);}.cls-30{fill:url(#Gradiente_sem_nome_30);}.cls-31{fill:url(#Gradiente_sem_nome_31);}.cls-32{fill:url(#Gradiente_sem_nome_32);}.cls-33{fill:url(#Gradiente_sem_nome_33-2);}.cls-34{fill:url(#Gradiente_sem_nome_34);}.cls-35{fill:url(#Gradiente_sem_nome_35);}.cls-36{fill:#fff;}</style><linearGradient id="Gradiente_sem_nome_37" x1="14.43" y1="48.99" x2="14.67" y2="48.99" gradientTransform="matrix(-30.09, 58.81, 64.42, 0.17, -2711.02, -844.86)" gradientUnits="userSpaceOnUse"><stop offset="0" stop-color="#c7d6ee"/><stop offset="0.19" stop-color="#91afc8"/><stop offset="1" stop-color="#002334"/></linearGradient><linearGradient id="Gradiente_sem_nome_2" x1="12.72" y1="47.39" x2="12.95" y2="47.39" gradientTransform="matrix(36.84, 36.18, 36.84, -36.18, -2162.02, 1252.97)" gradientUnits="userSpaceOnUse"><stop offset="0" stop-color="#e1e8f5"/><stop offset="0.9" stop-color="#92a5c1"/><stop offset="0.96" stop-color="#476886"/><stop offset="1" stop-color="#e1e8f5"/></linearGradient><linearGradient id="Gradiente_sem_nome_3" x1="13.54" y1="51.9" x2="13.77" y2="51.9" gradientTransform="matrix(37.68, -37.01, -37.68, -37.01, 1481.27, 2429.09)" gradientUnits="userSpaceOnUse"><stop offset="0" stop-color="#e1e8f5"/><stop offset="0.04" stop-color="#476886"/><stop offset="0.09" stop-color="#92a5c1"/><stop offset="1" stop-color="#e1e8f5"/></linearGradient><linearGradient id="Gradiente_sem_nome_5" x1="11" y1="55.18" x2="11.24" y2="55.18" gradientTransform="matrix(12.27, -11.24, -11.44, -12.05, 526.22, 796.12)" gradientUnits="userSpaceOnUse"><stop offset="0" stop-color="#e1e8f5"/><stop offset="0.16" stop-color="#c7d6ee"/><stop offset="1" stop-color="#e1e8f5"/></linearGradient><linearGradient id="Gradiente_sem_nome_5-2" x1="25.07" y1="42.01" x2="25.3" y2="42.01" gradientTransform="matrix(-12.99, -11.9, 12.11, -12.76, -116.56, 841.93)" xlink:href="#Gradiente_sem_nome_5"/><linearGradient id="Gradiente_sem_nome_6" x1="14.74" y1="51.25" x2="14.97" y2="51.25" gradientTransform="matrix(42.27, -41.51, -42.27, -41.51, 1559.44, 2754.21)" gradientUnits="userSpaceOnUse"><stop offset="0" stop-color="#476886"/><stop offset="0.13" stop-color="#92a5c1"/><stop offset="1" stop-color="#e1e8f5"/></linearGradient><linearGradient id="Gradiente_sem_nome_7" x1="24.87" y1="46.43" x2="25.1" y2="46.43" gradientTransform="matrix(-4.95, -6.95, -7.07, 4.86, 455.15, -24.47)" gradientUnits="userSpaceOnUse"><stop offset="0" stop-color="#002334"/><stop offset="0.11" stop-color="#fff"/><stop offset="0.19" stop-color="#91afc8"/><stop offset="0.24" stop-color="#002334"/><stop offset="0.53" stop-color="#5e738f"/><stop offset="0.76" stop-color="#002334"/><stop offset="1" stop-color="#002334"/></linearGradient><linearGradient id="Gradiente_sem_nome_8" x1="15.53" y1="48.44" x2="15.77" y2="48.44" gradientTransform="matrix(-38.14, 19.06, 19.41, 37.46, -335.88, -2093.53)" gradientUnits="userSpaceOnUse"><stop offset="0" stop-color="#91afc8"/><stop offset="1" stop-color="#002334"/></linearGradient><linearGradient id="Gradiente_sem_nome_12" x1="21.26" y1="52.91" x2="21.49" y2="52.91" gradientTransform="matrix(-2.92, -16.29, -16.58, 2.87, 956.34, 225.31)" gradientUnits="userSpaceOnUse"><stop offset="0" stop-color="#a5b9cc"/><stop offset="1" stop-color="#002334"/></linearGradient><linearGradient id="Gradiente_sem_nome_10" x1="-7.86" y1="70.68" x2="-7.62" y2="70.68" gradientTransform="matrix(4.86, 0, 0, -4.77, 68.85, 369.95)" gradientUnits="userSpaceOnUse"><stop offset="0" stop-color="#5e738f"/><stop offset="0.49" stop-color="#91afc8"/><stop offset="1" stop-color="#91afc8"/></linearGradient><linearGradient id="Gradiente_sem_nome_11" x1="52.03" y1="66.63" x2="52.27" y2="66.63" gradientTransform="translate(378.34 426.2) rotate(180) scale(6.02 5.91)" gradientUnits="userSpaceOnUse"><stop offset="0" stop-color="#5e738f"/><stop offset="0.32" stop-color="#91afc8"/><stop offset="1" stop-color="#91afc8"/></linearGradient><linearGradient id="Gradiente_sem_nome_12-2" x1="15.35" y1="56.81" x2="15.58" y2="56.81" gradientTransform="matrix(16.46, -27.99, -28.5, -16.16, 1421.2, 1386.94)" xlink:href="#Gradiente_sem_nome_12"/><linearGradient id="Gradiente_sem_nome_13" x1="10.31" y1="47.99" x2="10.55" y2="47.99" gradientTransform="matrix(16.58, 28.21, 28.72, -16.29, -1511.4, 523.66)" gradientUnits="userSpaceOnUse"><stop offset="0" stop-color="#002334"/><stop offset="0.78" stop-color="#a5b9cc"/><stop offset="1" stop-color="#a5b9cc"/></linearGradient><linearGradient id="Gradiente_sem_nome_33" x1="14.61" y1="49.56" x2="14.84" y2="49.56" gradientTransform="matrix(74.06, 125.99, 128.28, -72.74, -7416.98, 1772.44)" gradientUnits="userSpaceOnUse"><stop offset="0" stop-color="#ffefcf"/><stop offset="0.46" stop-color="#ffe4a6"/><stop offset="1" stop-color="#bc956e"/></linearGradient><linearGradient id="Gradiente_sem_nome_15" x1="12.22" y1="57.98" x2="12.45" y2="57.98" gradientTransform="matrix(20.77, -22.74, -23.16, -20.4, 1160.13, 1493.61)" gradientUnits="userSpaceOnUse"><stop offset="0" stop-color="#5e738f"/><stop offset="0.61" stop-color="#91afc8"/><stop offset="1" stop-color="#c7dff4"/></linearGradient><linearGradient id="Gradiente_sem_nome_16" x1="12.58" y1="45.99" x2="12.82" y2="45.99" gradientTransform="matrix(27.58, 46.92, 47.77, -27.09, -2467.42, 659.02)" gradientUnits="userSpaceOnUse"><stop offset="0" stop-color="#e1e8f5"/><stop offset="0.81" stop-color="#7f97b4"/><stop offset="0.9" stop-color="#476886"/><stop offset="1" stop-color="#002334"/></linearGradient><linearGradient id="Gradiente_sem_nome_17" x1="14.28" y1="53.21" x2="14.51" y2="53.21" gradientTransform="matrix(44.95, -76.46, -77.85, -44.14, 3584.87, 3469.57)" gradientUnits="userSpaceOnUse"><stop offset="0" stop-color="#8ca0b5"/><stop offset="0.14" stop-color="#e1e8f5"/><stop offset="0.81" stop-color="#7f97b4"/><stop offset="0.9" stop-color="#476886"/><stop offset="1" stop-color="#002334"/></linearGradient><linearGradient id="Gradiente_sem_nome_18" x1="4.66" y1="61.57" x2="4.9" y2="61.57" gradientTransform="matrix(15.92, -9.03, -9.19, -15.64, 571.9, 1033.95)" gradientUnits="userSpaceOnUse"><stop offset="0" stop-color="#002334"/><stop offset="0.81" stop-color="#a5b9cc"/><stop offset="0.89" stop-color="#002334"/><stop offset="1" stop-color="#002334"/></linearGradient><linearGradient id="Gradiente_sem_nome_21" x1="13.9" y1="50.1" x2="14.14" y2="50.1" gradientTransform="matrix(52.07, 51.14, 52.07, -51.14, -3320.18, 1872.39)" gradientUnits="userSpaceOnUse"><stop offset="0" stop-color="#d4bc7b"/><stop offset="0.33" stop-color="#7f5f39"/><stop offset="1" stop-color="#d4bc7b"/></linearGradient><linearGradient id="Gradiente_sem_nome_21-2" x1="17.62" y1="54.45" x2="17.85" y2="54.45" gradientTransform="matrix(-37.19, 36.53, -37.19, -36.53, 2757.91, 1368.28)" xlink:href="#Gradiente_sem_nome_21"/><linearGradient id="Gradiente_sem_nome_21-3" x1="17.33" y1="52.44" x2="17.57" y2="52.44" gradientTransform="matrix(-60.11, 59.04, -60.11, -59.04, 4278.99, 2076.68)" xlink:href="#Gradiente_sem_nome_21"/><linearGradient id="Gradiente_sem_nome_23" x1="0.24" y1="62.01" x2="0.47" y2="62.01" gradientTransform="matrix(7.85, 0, 0, -7.71, 30.31, 509)" gradientUnits="userSpaceOnUse"><stop offset="0" stop-color="#d3bd8b"/><stop offset="1" stop-color="#7f5f39"/></linearGradient><linearGradient id="Gradiente_sem_nome_23-2" x1="42.74" y1="62" x2="42.98" y2="62" gradientTransform="translate(399.44 508.95) rotate(180) scale(7.85 7.71)" xlink:href="#Gradiente_sem_nome_23"/><linearGradient id="Gradiente_sem_nome_24" x1="9.76" y1="47.56" x2="10" y2="47.56" gradientTransform="matrix(14.59, 24.83, 25.28, -14.33, -1305.78, 470.9)" gradientUnits="userSpaceOnUse"><stop offset="0" stop-color="#7f5f39"/><stop offset="0.65" stop-color="#d3bd8b"/><stop offset="0.89" stop-color="#ffe4a6"/><stop offset="1" stop-color="#ffe4a6"/></linearGradient><linearGradient id="Gradiente_sem_nome_25" x1="15.44" y1="43.16" x2="15.68" y2="43.16" gradientTransform="matrix(-15.94, 27.12, 27.61, 15.66, -888.79, -1063.07)" gradientUnits="userSpaceOnUse"><stop offset="0" stop-color="#7f5f39"/><stop offset="0.46" stop-color="#d3bd8b"/><stop offset="0.89" stop-color="#ffe4a6"/><stop offset="1" stop-color="#ffe4a6"/></linearGradient><linearGradient id="Gradiente_sem_nome_27" x1="13.36" y1="52.22" x2="13.59" y2="52.22" gradientTransform="matrix(33.7, -33.1, -33.7, -33.1, 1346.22, 2178.39)" gradientUnits="userSpaceOnUse"><stop offset="0" stop-color="#d4bc7b"/><stop offset="0.04" stop-color="#7f5f39"/><stop offset="0.11" stop-color="#d1ac75"/><stop offset="1" stop-color="#d4bc7b"/></linearGradient><linearGradient id="Gradiente_sem_nome_27-2" x1="18.26" y1="47.31" x2="18.5" y2="47.31" gradientTransform="matrix(-34.29, -33.68, 34.29, -33.68, -936.61, 2216.66)" xlink:href="#Gradiente_sem_nome_27"/><linearGradient id="Gradiente_sem_nome_36" x1="11.11" y1="55.5" x2="11.35" y2="55.5" gradientTransform="matrix(12.53, -11.48, -11.69, -12.31, 540.67, 819.91)" gradientUnits="userSpaceOnUse"><stop offset="0" stop-color="#ffe292"/><stop offset="0.16" stop-color="#d1ac75"/><stop offset="1" stop-color="#ffe292"/></linearGradient><linearGradient id="Gradiente_sem_nome_36-2" x1="24.96" y1="42.51" x2="25.19" y2="42.51" gradientTransform="matrix(-13.06, -11.97, 12.18, -12.83, -127.01, 853.19)" xlink:href="#Gradiente_sem_nome_36"/><linearGradient id="Gradiente_sem_nome_30" x1="14.7" y1="51.48" x2="14.94" y2="51.48" gradientTransform="matrix(39.15, -38.45, -39.15, -38.45, 1457.83, 2560.98)" gradientUnits="userSpaceOnUse"><stop offset="0" stop-color="#7f5f39"/><stop offset="1" stop-color="#bd9b6a"/></linearGradient><linearGradient id="Gradiente_sem_nome_31" x1="4.88" y1="42.99" x2="5.12" y2="42.99" gradientTransform="matrix(16.66, 16.36, 16.66, -16.36, -712.68, 641.31)" gradientUnits="userSpaceOnUse"><stop offset="0" stop-color="#7f5f39"/><stop offset="1" stop-color="#d4bc7b"/></linearGradient><linearGradient id="Gradiente_sem_nome_32" x1="14.31" y1="53.61" x2="14.55" y2="53.61" gradientTransform="matrix(36.75, -69.53, -70.79, -36.1, 3352.82, 2957.94)" gradientUnits="userSpaceOnUse"><stop offset="0" stop-color="#a78a5e"/><stop offset="0.76" stop-color="#7f5f39"/><stop offset="0.92" stop-color="#674c2b"/><stop offset="1" stop-color="#674c2b"/></linearGradient><linearGradient id="Gradiente_sem_nome_33-2" x1="16.47" y1="50.83" x2="16.71" y2="50.83" gradientTransform="matrix(-104.47, -122.28, -124.5, 102.61, 8125.55, -3170.17)" xlink:href="#Gradiente_sem_nome_33"/><linearGradient id="Gradiente_sem_nome_34" x1="15.78" y1="51.41" x2="16.02" y2="51.41" gradientTransform="matrix(36.11, -35.47, -36.11, -35.47, 1289.95, 2409.16)" gradientUnits="userSpaceOnUse"><stop offset="0" stop-color="#7f5f39"/><stop offset="1" stop-color="#e9cf98"/></linearGradient><linearGradient id="Gradiente_sem_nome_35" x1="15.61" y1="50.98" x2="15.85" y2="50.98" gradientTransform="matrix(48.63, -47.76, -48.63, -47.76, 1721.71, 3206.19)" gradientUnits="userSpaceOnUse"><stop offset="0" stop-color="#7f5f39"/><stop offset="1" stop-color="#e4cb90"/></linearGradient></defs><title>chevrolet</title><g id="g24"><g id="g26"><g id="g32"><g id="g34"><path id="path44" class="cls-1" d="M3.56,26.24h.73l7.22-14.1h-.73L3.56,26.24Z"/></g></g></g></g><g id="g82"><g id="g84"><g id="g90"><g id="g92"><path id="path104" class="cls-2" d="M48.33,2.1l-.12,1.34H62.82a.89.89,0,0,1,.93.47h0l1.62-1.41a1.72,1.72,0,0,0-1.15-.39H48.33Z"/></g></g></g></g><g id="g106"><g id="g108"><g id="g114"><g id="g116"><path id="path128" class="cls-3" d="M32.15,2.1a1.47,1.47,0,0,0-1.08.48h0l1,1.12s.21-.26,1-.26h15l.12-1.34Z"/></g></g></g></g><g id="g130"><g id="g132"><g id="g138"><g id="g140"><path id="path150" class="cls-4" d="M30.69,3.37V7.44c0,.64-.13.8-.13.8h0l1.16,1.21a2.44,2.44,0,0,0,.17-.67h0v-4c0-.25,0-.63,0-.63h0L30.82,2.79a1.28,1.28,0,0,0-.13.58"/></g></g></g></g><g id="g152"><g id="g154"><g id="g160"><g id="g162"><path id="path172" class="cls-5" d="M64.41,4s0,.47,0,.73h0c0,.25,0,3.69,0,3.95h0a1.85,1.85,0,0,0,.38.73h0l1.38-1.2s-.33-.11-.33-.75h0V3.37a.82.82,0,0,0-.29-.58h0L64.41,4Z"/></g></g></g></g><g id="g174"><g id="g176"><g id="g182"><g id="g184"><path id="path196" class="cls-6" d="M29.06,9l-16.13,0h0a3.27,3.27,0,0,0-1.83.5h0l.95,1.25a1.6,1.6,0,0,1,1.22-.46H30.08a2.21,2.21,0,0,0,1-.26h0L30,8.8a2.84,2.84,0,0,1-.95.25"/></g></g></g></g><g id="g198"><g id="g200"><g id="g206"><g id="g208"><path id="path228" class="cls-7" d="M3.11,27.29,1.4,28.47a1.18,1.18,0,0,0,.12.88h0a1,1,0,0,0,.65.45h0L4.4,28.23s-1.27-.06-.74-1h0A2.74,2.74,0,0,0,4.16,26h0s-.61.1-1,1.31"/></g></g></g></g><g id="g230"><g id="g232"><g id="g238"><g id="g240"><path id="path248" class="cls-8" d="M7.83,15.7c-1.37,2.77-6,11.67-6.13,12h0a6.43,6.43,0,0,0-.32.87h0l1.77-1.27L11.46,11A16.26,16.26,0,0,0,7.83,15.7"/></g></g></g></g><g id="g250"><g id="g252"><g id="g258"><g id="g260"><path id="path268" class="cls-9" d="M4.44,28.27,2.16,29.88l26.62.06h0a2.53,2.53,0,0,1,.93.12h0l1.17-1.31a6.08,6.08,0,0,0-1.74-.49H4.44Z"/></g></g></g></g><g id="g270"><g id="g272"><g id="g278"><g id="g280"><path id="path292" class="cls-10" d="M30.38,30.78a2.32,2.32,0,0,1,.24.85h0V35a2.43,2.43,0,0,0,.19.9h0l1.14-1.32v-4a2.4,2.4,0,0,0-.36-1.19h0l-1.21,1.42Z"/></g></g></g></g><g id="g294"><g id="g296"><g id="g302"><g id="g304"><path id="path316" class="cls-11" d="M63.71,30.12v4L65.5,35.7s0-.41,0-.89h0V31.43a1.57,1.57,0,0,1,.11-.61h0l-1.57-1.54a.89.89,0,0,0-.38.84"/></g></g></g></g><g id="g318"><g id="g320"><g id="g326"><g id="g328"><path id="path336" class="cls-12" d="M62.37,34.83H48.3v1.88H63.87a2.68,2.68,0,0,0,1.26-.43h0l-1.77-1.64s-.12.2-1,.2"/></g></g></g></g><g id="g338"><g id="g340"><g id="g346"><g id="g348"><path id="path358" class="cls-13" d="M31.34,36.48a2.61,2.61,0,0,0,1.38.25h0l15.58,0h0V34.83h-15a1.9,1.9,0,0,1-.45,0h0Z"/></g></g></g></g><g id="g360"><g id="g362"><g id="g368"><g id="g370"><path id="path380" class="cls-14" d="M35.39,5.16A1.45,1.45,0,0,0,33.76,6.5h0v4.36a1.11,1.11,0,0,1-1.18,1.24h-18a1.72,1.72,0,0,0-1.62.91h0c-.27.5-4.77,9.36-6.22,12.22h0c-.32.62,0,1,.77,1H32.67c1.09,0,1.27,1,1.27,2h0v3.39a1.45,1.45,0,0,0,1.36,1.33H48V5.16H35.39Z"/></g></g></g></g><g id="g382"><g id="g384"><g id="g390"><g id="g392"><path id="path404" class="cls-15" d="M64.9,28.64l1.45,1.47a5.57,5.57,0,0,1,2.06-.2H83.88a2.84,2.84,0,0,0,.77-.16h0l-8.18-1.62h-10a2.76,2.76,0,0,0-1.6.51"/></g></g></g></g><g id="g406"><g id="g408"><g id="g414"><g id="g416"><path id="path430" class="cls-16" d="M65.44,9.92a5,5,0,0,0,1.29.23H91.09a10.47,10.47,0,0,1,1.17.05h0l2-1.15A5.37,5.37,0,0,0,93,8.88H67.67a2,2,0,0,1-.9-.15h0L65.44,9.92Z"/></g></g></g></g><g id="g432"><g id="g434"><g id="g440"><g id="g442"><path id="path458" class="cls-17" d="M93,10.83a1.9,1.9,0,0,1-.1,1h0c-.21.41-7.58,14.64-7.91,15.29h0A2,2,0,0,1,83.9,28h0l.84,1.65a3,3,0,0,0,.47-.45h0c.17-.22,9.24-18.34,9.52-19h0c.28-.64,0-.87,0-.87h0L93,10.83Z"/></g></g></g></g><g id="g460"><g id="g462"><g id="g468"><g id="g470"><path id="path484" class="cls-18" d="M83.11,28.16l-6.41,0h0l7.74,1.54a1.7,1.7,0,0,0,.73-.59h0c.24-.4,0-.51-.28-.28h0c-.28.24-.77-.16-.52-.43h0a4.31,4.31,0,0,0,.48-1.15h0a2.66,2.66,0,0,1-1.73.87"/></g></g></g></g><g id="g486"><g id="g488"><g id="g494"><g id="g496"><path id="path506" class="cls-19" d="M11.13,26.94c-5.07.33-6.69,1.27-6.69,1.27h24.2c2.75,0,2.44.37,2.42.39h0l2-2s-4.79,0-7.83-.05H23.91c-3.25,0-8.36.16-12.79.45M31.06,28.6h0Z"/></g></g></g></g><g id="g508"><g id="g510"><g id="g516"><g id="g518"><path id="path528" class="cls-20" d="M68.21,26.5c-2.15.05-5.54.05-5.54.05h0l2.26,2.09s.23-.49,2.23-.49h0l16.37,0h0s.24-.77-4-1.07h0c-3.33-.23-8.37-.54-10.8-.54h-.52"/></g></g></g></g><g id="g530"><g id="g532"><g id="g538"><g id="g540"><path id="path550" class="cls-21" d="M63.09,12.32s3.39,0,5.54.06h0c2.15.06,15.21-.53,18.8-.86h0c3.59-.33,4.74-1.27,4.74-1.27h0l-24.82.12h0c-2,0-1.71-.39-1.71-.39h0Z"/></g></g></g></g><g id="g552"><g id="g554"><g id="g560"><g id="g562"><path id="path570" class="cls-22" d="M31.7,29.41a5.58,5.58,0,0,1,.24,1.36h0v2.67a2,2,0,0,0,.24,1.07h0l2.06-2a3.93,3.93,0,0,1-.31-1.25h0v-3A4.71,4.71,0,0,0,33.76,27h0Z"/></g></g></g></g><g id="g572"><g id="g574"><g id="g580"><g id="g582"><path id="path590" class="cls-23" d="M61.87,28.22c0,.7,0,2.56,0,3.1h0a7.42,7.42,0,0,1-.13,1.18h0l2.06,2A2,2,0,0,0,64,33.45h0V30.78a5.58,5.58,0,0,1,.24-1.36h0L62,26.92a5.57,5.57,0,0,0-.17,1.3"/></g></g></g></g><g id="g592"><g id="g594"><g id="g600"><g id="g602"><path id="path614" class="cls-24" d="M32.85,34.75l15,.12h.06v-2l-13.06,0-2,1.9Z"/></g></g></g></g><g id="g616"><g id="g618"><g id="g624"><g id="g626"><path id="path638" class="cls-25" d="M48,32.9h-.06v2l15.42-.18-2.48-1.84L48,32.9Z"/></g></g></g></g><g id="g640"><g id="g642"><g id="g648"><g id="g650"><path id="path662" class="cls-26" d="M33.06,3.42a1.87,1.87,0,0,0-.82.22h0l2,1.92s.2-.42,1.6-.42H48V3.42H33.06Z"/></g></g></g></g><g id="g664"><g id="g666"><g id="g672"><g id="g674"><path id="path686" class="cls-27" d="M48,3.42V5.15H60.11c1.4,0,1.69.6,1.69.6h0l2-1.92a1.78,1.78,0,0,0-.91-.41H48Z"/></g></g></g></g><g id="g688"><g id="g690"><g id="g696"><g id="g698"><path id="path708" class="cls-28" d="M31.86,5.1V8.59a3.07,3.07,0,0,1-.18.9h0l1.95,2.17s.13-.18.13-1.08h0c0-.9.08-4.44.08-4.44h0L31.89,4s0,.57,0,1.11"/></g></g></g></g><g id="g710"><g id="g712"><g id="g718"><g id="g720"><path id="path730" class="cls-29" d="M61.88,6.18v4.34c0,.9.43,1.15.43,1.15h0l2.38-2.35a2.1,2.1,0,0,1-.31-.9h0c0-.41,0-2.93,0-3.48h0c0-.54,0-1,0-1h0l-2.5,2.29Z"/></g></g></g></g><g id="g732"><g id="g734"><g id="g740"><g id="g742"><path id="path750" class="cls-30" d="M30.25,10.41H13.57a2.83,2.83,0,0,0-1.51.42h0l1.51,1.54a2.69,2.69,0,0,1,1.45-.3H32.37a3.2,3.2,0,0,0,1-.18h0l-1.93-2a1.81,1.81,0,0,1-1.15.47"/></g></g></g></g><g id="g752"><g id="g754"><g id="g760"><g id="g762"><path id="path770" class="cls-31" d="M82.22,26.29a.92.92,0,0,1,1.23.75h0s.23.34.88-.57h0C85,25.54,91,13.27,91,13.1h0c-.06-.17-1.28-.4-1.28-.4h0Z"/></g></g></g></g><g id="g772"><g id="g774"><g id="g780"><g id="g782"><path id="path794" class="cls-32" d="M89.87,12.81c.29.17.58.4.18,1.26h0C89.64,14.93,85,23.88,84,25.6h0c-1,1.72-.12,2.41-.12,2.41h0a2.83,2.83,0,0,0,1-.72h0c.23-.37,7.36-14.25,7.85-15.18h0c.49-.93.15-1.31.15-1.31h0l-3,2Z"/></g></g></g></g><g id="g796"><g id="g798"><g id="g804"><g id="g806"><path id="path816" class="cls-33" d="M48,5.16V32.9H60.45c.72,0,1.36-.27,1.36-1.07h0V27.69A1.32,1.32,0,0,1,63,26.27H81.82a1.83,1.83,0,0,0,1.6-1h0c1.54-2.8,5.78-10.9,6.1-11.55h0c.39-.8.15-1.26-.76-1.26h-25a1.82,1.82,0,0,1-1.9-1.78h0V6.14c0-.62-.36-1-1.18-1H48Z"/></g></g></g></g><g id="g818"><g id="g820"><g id="g826"><g id="g828"><path id="path836" class="cls-34" d="M4.23,27.44,6.65,26s-.28-.12.16-1h0c.44-.86,4.52-9,4.52-9h0l-.91-.19L4.23,27.44Z"/></g></g></g></g><g id="g838"><g id="g840"><g id="g846"><g id="g848"><path id="path856" class="cls-35" d="M4,26.38c-.6,1.07-.48,1.48-.48,1.48h0l1.45-1s6.47-12.29,7.13-13.72h0c.67-1.42-.33-2-.33-2h0S4.62,25.31,4,26.38"/></g></g></g></g><g id="g866"><path id="path868" class="cls-36" d="M5,28.26c-.1.06-1,.17-1.15,0s-.46-.3-.23-.49,3.07-1.85,3.07-1.85-.35.19,2.58.19H32.63a1.47,1.47,0,0,1,1.27.68c.08.26-.08.38-.27.34s-.69-.19-.81-.38.15-.34-1.54-.34-14.61.19-17.53.45S7,26.94,5,28.26"/></g><g id="g870"><path id="path872" class="cls-36" d="M91.32,10.29c.1-.06,1-.17,1.15,0s.46.3.23.49-3.07,1.85-3.07,1.85.34-.19-2.58-.19H63.68a1.46,1.46,0,0,1-1.27-.68c-.08-.27.08-.38.27-.34a1.61,1.61,0,0,1,.81.38c.12.19-.15.34,1.54.34s14.61-.19,17.53-.45,6.77-.08,8.76-1.4"/></g><g id="g874"><path id="path876" class="cls-36" d="M12.54,12.47c0-.27.15-.77,0-.92s.24-.33.48-.18.76.27.82.39,0,.41-.36.53-.63.39-1.15,1.48-3.45,6.68-3.45,6.68.42-.89.24-.92-.6.71-.6.71Z"/></g><g id="g878"><path id="path880" class="cls-36" d="M32.75,11.95c-.25,0-.32-.24-.11-.28s.5-.05.75-1a22.83,22.83,0,0,0,0-4.41c0-.52-.28-1.15.07-1.43s.61.31,1.53.31,3-.07,3-.07-3,.21-3.46.28a1,1,0,0,0-.85,1.15,31.84,31.84,0,0,1-.25,4.69c-.14.38-.39.73-.75.77"/></g><g id="g882"><path id="path884" class="cls-36" d="M52.69,5.08c-.39,0,7.51.09,8,.09s1.07.15,1.18.64a14.29,14.29,0,0,1,0,2.1,8.21,8.21,0,0,1,.6-2.44c.36-.39.25-.94-.21-.84s-4.13.22-9.6.46"/></g><g id="g886"><path id="path888" class="cls-36" d="M63.24,26.52c-.25,0-.53-.07-.6.14s.32.35-.07.56-.68.34-.68.16.2-1.07.95-1.07l19.45,0c.28,0,.64,0,.78.31s.32,1,.43,1.19-.07.21-.39-.21A2.27,2.27,0,0,0,81.32,27c-.64,0-18.08-.49-18.08-.49"/></g><g id="g890"><path id="path892" class="cls-36" d="M83.56,27.12l-.28-.63a.77.77,0,0,0-.43-.35,8.85,8.85,0,0,0,.85-1.33c.5-.91,2.84-5.23,3.09-5.83,0,0-.53,1.61.5.28,0,0-3.34,6.21-3.55,6.63a3.17,3.17,0,0,0-.18,1.22"/></g><g id="g894"><path id="path896" class="cls-36" d="M34.16,32s0,.5-.25.71-.42.58-.17.75.42.08.59-.17a1.33,1.33,0,0,1,1.15-.38s-1.32.17-1.32-.92"/></g><g id="g898"><path id="path900" class="cls-36" d="M52.46,32.89l7.59.39.72,0S60,33.2,60.24,33Z"/></g><g id="g902"><path id="path904" class="cls-36" d="M61,32.84a.34.34,0,0,0,.13.5c.34.17.68.33.89.08s-.17-.92-.13-1.38c0,0,.17.71-.89.79"/></g><g id="g906"><path id="path908" d="M69.7,33.44h-.4v.66h.4c.2,0,.26-.08.26-.21v-.24c0-.17-.08-.21-.26-.21m0,.87h-.4v.54h-.24V33.22h.64c.36,0,.5.16.5.43v.24a.36.36,0,0,1-.24.38l.45.59h-.29Zm-.07,1a1.28,1.28,0,1,0,0-2.57,1.28,1.28,0,1,0,0,2.57m0-2.78a1.5,1.5,0,1,1-1.53,1.5,1.45,1.45,0,0,1,1.53-1.5"/></g><g id="g4642"><g id="g910"><path id="path912" d="M21,43.36H18.4v-3.3H15.86v8.2H18.4V44.72H21v3.53h2.55v-8.2H21Z"/></g><g id="g914"><path id="path916" d="M67.86,46.89V40.06H65.32v8.2h6.19V46.89Z"/></g><g id="g918"><path id="path920" d="M82.34,40.06v1.37h2.32v6.83H87.2V41.43h2.32V40.06Z"/></g><g id="g922"><path id="path924" d="M6.67,41.76a1.55,1.55,0,0,1,1.58-1.71h5.11v1.37H9.69a.47.47,0,0,0-.47.51v4.44a.47.47,0,0,0,.47.51h3.66v1.36H8.25a1.55,1.55,0,0,1-1.58-1.71Z"/></g><g id="g926"><path id="path928" d="M51,44.93l2.2,3.33H50.45L48.5,44.87V43.81h1.05a.47.47,0,0,0,.47-.51V41.94a.47.47,0,0,0-.47-.51H47.77v6.83H45.23v-8.2H51a1.55,1.55,0,0,1,1.57,1.71v1.66a1.37,1.37,0,0,1-1.39,1.51Z"/></g><g id="g930"><path id="path932" d="M59.78,46.89a.47.47,0,0,0,.47-.51V41.94a.47.47,0,0,0-.47-.51H58a.47.47,0,0,0-.47.51v4.44a.47.47,0,0,0,.47.51ZM55,41.76a1.55,1.55,0,0,1,1.57-1.71h4.67a1.55,1.55,0,0,1,1.58,1.71v4.78a1.55,1.55,0,0,1-1.58,1.71H56.56A1.55,1.55,0,0,1,55,46.55Z"/></g><g id="g934"><path id="path936" d="M34.92,40.06h2.73l1.63,6.34a.12.12,0,0,0,.23,0l1.58-6.34h2.14l-2,7a1.42,1.42,0,0,1-1.58,1.16H38.4c-.58,0-1.06-.3-1.34-1.17Z"/></g><g id="g938"><path id="path940" d="M28.71,46.63a.23.23,0,0,0,.24.26h4.18v1.37H27.73a1.55,1.55,0,0,1-1.57-1.71V41.76a1.55,1.55,0,0,1,1.57-1.71h5.39v1.37H28.94a.23.23,0,0,0-.24.26v1.67h3.94v1.37H28.71Z"/></g><g id="g942"><path id="path944" d="M75.83,46.63a.23.23,0,0,0,.23.26h4.19v1.37h-5.4a1.56,1.56,0,0,1-1.58-1.71V41.76a1.56,1.56,0,0,1,1.58-1.71h5.4v1.37H76.06a.23.23,0,0,0-.23.26v1.67h3.94v1.37H75.83Z"/></g></g></svg>