<svg id="Camada_1" data-name="Camada 1" xmlns="http://www.w3.org/2000/svg" viewBox="0 0 80.83 50"><defs><style>.cls-1{fill:#a70230;}</style></defs><title>fiat</title><g id="Warstwa_1"><g id="_217956912" data-name=" 217956912"><polygon id="_217961256" data-name=" 217961256" class="cls-1" points="2 1.82 3.53 49 10.95 49 10.79 29.44 17.02 29.44 17.02 23.34 10.79 23.34 10.81 7.99 18.94 7.99 18.9 1.82 2 1.82"/><polygon id="_217958256" data-name=" 217958256" class="cls-1" points="21.84 1.82 22.77 49 30.44 49 30.6 1.82 21.84 1.82"/><polygon id="_217960584" data-name=" 217960584" class="cls-1" points="57.78 1.82 57.78 7.77 63.84 7.77 63.66 49 71.08 49 72.66 7.77 78.67 7.77 78.62 1.82 57.78 1.82"/><path id="_217960752" data-name=" 217960752" class="cls-1" d="M42.16,23.66l.08-16h4.28c1.94,3.57,3.19,8.29,4.17,16ZM35.32,49h7.1l.08-19.51H51c.67,3.44.83,14.07.87,19.51h6.89c.65-24.09-1.37-37.7-6.95-47.18H34.67L35.32,49Z"/></g></g></svg>