<svg id="Camada_1" data-name="Camada 1" xmlns="http://www.w3.org/2000/svg" xmlns:xlink="http://www.w3.org/1999/xlink" viewBox="0 0 130.25 50"><defs><style>.cls-1{fill:#7587dd;stroke:#000;}.cls-2{fill:url(#Gradiente_sem_nome);}.cls-3{fill:url(#Gradiente_sem_nome_2);}.cls-4{fill:url(#Gradiente_sem_nome_3);}.cls-5{fill:url(#Gradiente_sem_nome_4);}.cls-6{fill:url(#Gradiente_sem_nome_5);}.cls-7{fill:url(#Gradiente_sem_nome_6);}.cls-8{fill:url(#Gradiente_sem_nome_7);}.cls-9{fill:url(#Gradiente_sem_nome_8);}.cls-10{fill:url(#Gradiente_sem_nome_9);}.cls-11{fill:url(#Gradiente_sem_nome_10);}.cls-12{fill:url(#Gradiente_sem_nome_11);}.cls-13{fill:url(#Gradiente_sem_nome_12);}.cls-14{fill:url(#Gradiente_sem_nome_13);}.cls-15{fill:url(#Gradiente_sem_nome_14);}.cls-16{fill:url(#Gradiente_sem_nome_15);}.cls-17{fill:url(#Gradiente_sem_nome_16);}.cls-18{fill:url(#Gradiente_sem_nome_17);}.cls-19{fill:url(#Gradiente_sem_nome_18);}.cls-20{fill:url(#Gradiente_sem_nome_19);}.cls-21{fill:url(#Gradiente_sem_nome_20);}.cls-22{fill:url(#Gradiente_sem_nome_22);}.cls-23{fill:url(#Gradiente_sem_nome_23);}.cls-24{fill:url(#Gradiente_sem_nome_24);}.cls-25{fill:url(#Gradiente_sem_nome_25);}.cls-26{fill:url(#Gradiente_sem_nome_26);}.cls-27{fill:url(#Gradiente_sem_nome_27);}.cls-28{fill:url(#Gradiente_sem_nome_28);}.cls-29{fill:url(#Gradiente_sem_nome_29);}</style><linearGradient id="Gradiente_sem_nome" x1="73.98" y1="828.33" x2="204.75" y2="828.33" gradientTransform="translate(-70.29 -554.24) scale(0.97 0.7)" gradientUnits="userSpaceOnUse"><stop offset="0" stop-color="#a6a6a6"/><stop offset="0.35" stop-color="#d9d9d9"/><stop offset="0.65" stop-color="#d9d9d9"/><stop offset="1" stop-color="#a6a6a6"/></linearGradient><radialGradient id="Gradiente_sem_nome_2" cx="139" cy="782.57" r="64.13" gradientTransform="translate(-70.29 -246.76) scale(0.97 0.35)" gradientUnits="userSpaceOnUse"><stop offset="0" stop-color="#00053e"/><stop offset="0.17" stop-color="#00073f"/><stop offset="0.33" stop-color="#001046"/><stop offset="0.48" stop-color="#001950"/><stop offset="0.62" stop-color="#00245d"/><stop offset="0.76" stop-color="#002f6d"/><stop offset="0.81" stop-color="#003475"/><stop offset="0.92" stop-color="#005693"/><stop offset="1" stop-color="#006ca9"/></radialGradient><linearGradient id="Gradiente_sem_nome_3" x1="41.16" y1="2199.57" x2="41.16" y2="2062.28" gradientTransform="translate(50.38 -715.12) scale(0.35)" xlink:href="#Gradiente_sem_nome_2"/><linearGradient id="Gradiente_sem_nome_4" x1="43.35" y1="2199.57" x2="43.35" y2="2062.28" gradientTransform="translate(50.38 -715.12) scale(0.35)" gradientUnits="userSpaceOnUse"><stop offset="0" stop-color="#00073f"/><stop offset="0.33" stop-color="#001046"/><stop offset="0.48" stop-color="#001950"/><stop offset="0.62" stop-color="#00245d"/><stop offset="0.76" stop-color="#002f6d"/><stop offset="0.81" stop-color="#003475"/><stop offset="0.92" stop-color="#005693"/><stop offset="1" stop-color="#006ca9"/></linearGradient><linearGradient id="Gradiente_sem_nome_5" x1="72.38" y1="2172.2" x2="72.38" y2="2076.02" gradientTransform="translate(50.38 -713.69) scale(0.35)" xlink:href="#Gradiente_sem_nome_2"/><linearGradient id="Gradiente_sem_nome_6" x1="113.35" y1="2172.27" x2="113.35" y2="2075.84" gradientTransform="translate(50.38 -713.69) scale(0.35)" xlink:href="#Gradiente_sem_nome_2"/><linearGradient id="Gradiente_sem_nome_7" x1="119.27" y1="2172.18" x2="119.27" y2="2076.02" gradientTransform="translate(50.38 -713.69) scale(0.35)" xlink:href="#Gradiente_sem_nome_2"/><linearGradient id="Gradiente_sem_nome_8" x1="65.82" y1="2172.2" x2="65.82" y2="2076" gradientTransform="translate(50.38 -713.69) scale(0.35)" xlink:href="#Gradiente_sem_nome_2"/><linearGradient id="Gradiente_sem_nome_9" x1="104.65" y1="2172.22" x2="104.65" y2="2075.98" gradientTransform="translate(50.38 -713.69) scale(0.35)" xlink:href="#Gradiente_sem_nome_2"/><linearGradient id="Gradiente_sem_nome_10" x1="20.54" y1="2172.2" x2="20.54" y2="2076" gradientTransform="translate(50.38 -713.69) scale(0.35)" xlink:href="#Gradiente_sem_nome_2"/><linearGradient id="Gradiente_sem_nome_11" x1="62.51" y1="2172.22" x2="62.51" y2="2075.98" gradientTransform="translate(50.38 -713.69) scale(0.35)" xlink:href="#Gradiente_sem_nome_2"/><linearGradient id="Gradiente_sem_nome_12" x1="113.51" y1="2172.22" x2="113.51" y2="2075.97" gradientTransform="translate(50.38 -713.69) scale(0.35)" xlink:href="#Gradiente_sem_nome_2"/><linearGradient id="Gradiente_sem_nome_13" x1="80.69" y1="2172.24" x2="80.69" y2="2075.95" gradientTransform="translate(50.38 -713.69) scale(0.35)" xlink:href="#Gradiente_sem_nome_2"/><linearGradient id="Gradiente_sem_nome_14" x1="133.53" y1="2172.22" x2="133.53" y2="2075.98" gradientTransform="translate(50.38 -713.69) scale(0.35)" xlink:href="#Gradiente_sem_nome_2"/><linearGradient id="Gradiente_sem_nome_15" x1="39.89" y1="2172.18" x2="39.89" y2="2076" gradientTransform="translate(50.38 -713.69) scale(0.35)" xlink:href="#Gradiente_sem_nome_2"/><linearGradient id="Gradiente_sem_nome_16" x1="24.85" y1="2172.18" x2="24.85" y2="2076.61" gradientTransform="translate(50.38 -713.69) scale(0.35)" xlink:href="#Gradiente_sem_nome_2"/><linearGradient id="Gradiente_sem_nome_17" x1="-47.97" y1="2172.2" x2="-47.97" y2="2075.98" gradientTransform="translate(50.38 -713.69) scale(0.35)" xlink:href="#Gradiente_sem_nome_2"/><linearGradient id="Gradiente_sem_nome_18" x1="-4.57" y1="2172.2" x2="-4.57" y2="2075.98" gradientTransform="translate(50.38 -713.69) scale(0.35)" xlink:href="#Gradiente_sem_nome_2"/><linearGradient id="Gradiente_sem_nome_19" x1="-17.42" y1="2172.22" x2="-17.42" y2="2075.98" gradientTransform="translate(50.38 -713.69) scale(0.35)" xlink:href="#Gradiente_sem_nome_2"/><linearGradient id="Gradiente_sem_nome_20" x1="-15.15" y1="2172.24" x2="-15.15" y2="2075.97" gradientTransform="translate(50.38 -713.69) scale(0.35)" xlink:href="#Gradiente_sem_nome_2"/><linearGradient id="Gradiente_sem_nome_22" x1="50.68" y1="2172.2" x2="50.68" y2="2075.98" gradientTransform="translate(50.38 -713.69) scale(0.35)" xlink:href="#Gradiente_sem_nome_2"/><linearGradient id="Gradiente_sem_nome_23" x1="25.62" y1="2172.24" x2="25.62" y2="2075.97" gradientTransform="translate(50.38 -713.69) scale(0.35)" xlink:href="#Gradiente_sem_nome_2"/><linearGradient id="Gradiente_sem_nome_24" x1="28.7" y1="2172.2" x2="28.7" y2="2075.98" gradientTransform="translate(50.38 -713.69) scale(0.35)" xlink:href="#Gradiente_sem_nome_2"/><linearGradient id="Gradiente_sem_nome_25" x1="-24.03" y1="2172.22" x2="-24.03" y2="2075.98" gradientTransform="translate(50.38 -713.69) scale(0.35)" xlink:href="#Gradiente_sem_nome_2"/><linearGradient id="Gradiente_sem_nome_26" x1="167.35" y1="50.31" x2="138.36" y2="-57.91" gradientTransform="translate(5.8 5.44) scale(0.5)" xlink:href="#Gradiente_sem_nome"/><linearGradient id="Gradiente_sem_nome_27" x1="118.17" y1="-8.18" x2="118.17" y2="88.41" gradientTransform="translate(5.8 5.44) scale(0.5)" gradientUnits="userSpaceOnUse"><stop offset="0" stop-color="#fff"/><stop offset="0.56" stop-color="#fdfdfd"/><stop offset="0.69" stop-color="#f9f9f9"/><stop offset="0.8" stop-color="#ccc"/><stop offset="1" stop-color="#b2b2b2"/></linearGradient><radialGradient id="Gradiente_sem_nome_28" cx="149.7" cy="778.04" r="28.2" gradientTransform="translate(-70.29 -256.18) scale(0.97 0.36)" gradientUnits="userSpaceOnUse"><stop offset="0" stop-color="#fff"/><stop offset="0.43" stop-color="#fdfdfd"/><stop offset="0.59" stop-color="#f6f6f6"/><stop offset="0.69" stop-color="#ececec"/><stop offset="0.8" stop-color="#e6e6e6"/><stop offset="1" stop-color="#ccc"/></radialGradient><radialGradient id="Gradiente_sem_nome_29" cx="129.94" cy="812.65" r="28.65" gradientTransform="translate(-70.29 -377.21) scale(0.97 0.5)" xlink:href="#Gradiente_sem_nome_28"/></defs><title>ford</title><g id="layer1"><g id="g3637"><path id="path5108" class="cls-1" d="M107.34,28.27a2.29,2.29,0,0,0-.12.55v2a3.39,3.39,0,0,0,0,.43,5.46,5.46,0,0,1,0,.79v.71c0,.23.12.11-.64.29h0a.91.91,0,0,0,0-.23,7,7,0,0,0-.09-1.36,5.84,5.84,0,0,1,0-1.25V28.64a6.45,6.45,0,0,0-.23-.75,2.45,2.45,0,0,1,0-.37.62.62,0,0,0,0-.23h0a5.69,5.69,0,0,1,.59-.23h0a2.16,2.16,0,0,0,0,.32,10.25,10.25,0,0,0,0,1.79,3.14,3.14,0,0,0,.12.77l.09.2a2.84,2.84,0,0,0,.2.37,2.57,2.57,0,0,0,.2.32l.27.3.25.34v.14a2.32,2.32,0,0,1,.11.29,2,2,0,0,1,0,.41V33l-.62.23h0v-.68a1.11,1.11,0,0,0,0-.12,2.21,2.21,0,0,0-.12-.43v-.29a3,3,0,0,0-.25-.34l-.36-.41a2.34,2.34,0,0,1-.2-.32,3.57,3.57,0,0,1-.27-.59,2.71,2.71,0,0,1-.11-.77c0-.57-.11-1.14-.09-1.79v-.32h0a4.82,4.82,0,0,1,.64-.3h0a.66.66,0,0,1,0,.2v.12a2.41,2.41,0,0,0,0,.37,4,4,0,0,0,.23.75c.05.25,0,0,0,.12a1.2,1.2,0,0,1,0,.12v2.55a8.3,8.3,0,0,0,.12,1.34.79.79,0,0,1,0,.23h0c-.79.39-.66.41-.64.2s0-.48,0-.71a5.46,5.46,0,0,0,0-.79V28.95a2,2,0,0,1,.11-.54l.64-.23Z"/><path id="path2993" class="cls-2" d="M64.89,2C29.69,2,1.47,12.49,1.47,25.59S29.92,49.13,64.89,49.13s63.42-10.57,63.42-23.55S99.86,2,64.89,2Zm63,21.76v.34A2,2,0,0,0,127.92,23.8Z"/><path id="path3014" class="cls-3" d="M64.57,3.45c-34.33,0-62.16,10-62.16,22.35S30.23,48.17,64.54,48.17s62.12-10,62.12-22.37S98.9,3.45,64.57,3.45Z"/><path id="path3035" class="cls-4" d="M7.43,26.45c0-10.34,25.85-18.71,57.75-18.71,29.35,0,53.55,7.14,57.25,16.28C120,14.34,95.24,6.74,64.89,6.74,33,6.74,7.15,15.18,7.15,25.59a6.62,6.62,0,0,0,.5,2.5A6.39,6.39,0,0,1,7.43,26.45Z"/><path id="path3056" class="cls-5" d="M124.35,23.23a7.46,7.46,0,0,1,.37,2.36C124.73,37,98,46.21,64.88,46.21,35.46,46.21,11,38.89,6,29.27,9.79,39.3,34.9,47.12,65.3,47.12c33,0,59.84-9.16,59.84-20.46a7.66,7.66,0,0,0-.8-3.36Z"/><path id="path3077" class="cls-6" d="M76,27.57a2.89,2.89,0,0,0-.57,4,1.66,1.66,0,0,0,1.05.45,2.93,2.93,0,0,1-.12-3.25,1.79,1.79,0,0,1,0-1.07C76.35,27.55,76.18,27.37,76,27.57Z"/><path id="path3098" class="cls-7" d="M89.88,30.57h0a2.39,2.39,0,0,0,.12.89l.21-.43v-.16s-.29-.16-.3-.27Z"/><path id="path3119" class="cls-8" d="M92.28,27.37c0,.23.2.25.34,0l.12-.2L92.62,27a12,12,0,0,0-1.11-1.11A2.37,2.37,0,0,1,92.28,27.37Z"/><path id="path3140" class="cls-9" d="M73.71,27.25l.18-.25a5.8,5.8,0,0,0-.95-1.87,3.27,3.27,0,0,1,.5,2.07C73.44,27.37,73.6,27.37,73.71,27.25Z"/><path id="path3161" class="cls-10" d="M84,35.8a1.59,1.59,0,0,0,.48.16,2.55,2.55,0,0,1,0-.61,7,7,0,0,1,1.79-4.62c1.52-1.79,3.11-2.77,4.21-2.27a1.21,1.21,0,0,0-.73-1c-1.11-.54-2.78.43-4.32,2.3a7.52,7.52,0,0,0-1.95,4.57,1.61,1.61,0,0,0,.68,1.45Z"/><path id="path3182" class="cls-11" d="M60.56,27.77a.27.27,0,0,0,.2-.32l0-.05a4.78,4.78,0,0,0-.34-1.2h0a.27.27,0,0,1-.16.35h0a10,10,0,0,0-4.57,3.2,4.59,4.59,0,0,0-.8,5.12,2.07,2.07,0,0,0,.75.64,5.69,5.69,0,0,1,1-4.94A8.5,8.5,0,0,1,60.56,27.77Z"/><path id="path3203" class="cls-12" d="M79.48,33.19a6.78,6.78,0,0,1-1.59.84,4.55,4.55,0,0,1-1.93.48,2.75,2.75,0,0,1-2.39-1.32,3.93,3.93,0,0,1-.5-1.79s0-.18-.18,0c-1.59,2.39-3.05,4.71-4.62,7.14a.37.37,0,0,1-.32.2H64.89a.21.21,0,0,1-.21-.12,6.24,6.24,0,0,0,.25,1.2.21.21,0,0,0,.23.16h3.57a.41.41,0,0,0,.32-.2C70.48,37.57,72,35.18,73.46,33a3.86,3.86,0,0,0,1.07,2.16,2.68,2.68,0,0,0,2,.68,6.21,6.21,0,0,0,2.36-.64,5.36,5.36,0,0,0,.86-.45,6.64,6.64,0,0,1,.11-1.21s0-.32-.27-.14Z"/><path id="path3224" class="cls-13" d="M100.18,32.35a.25.25,0,0,1,0,.14,31,31,0,0,1-4.78,4.77c-2.48,1.91-5,2.39-6.19,1.16a2.64,2.64,0,0,1-.73-1.66c0-.3-.16-.32-.3-.18-1.46,1.43-4,3-6.34,1.89a3.84,3.84,0,0,1-2.05-2.89h0a10.57,10.57,0,0,0,.75,2.86,3.45,3.45,0,0,0,1.21,1.25c2.05,1,5-.14,6.87-1.93h0l.21.77a2.93,2.93,0,0,0,.5,1c1.29,1.45,4,.79,6.89-1.39A27.42,27.42,0,0,0,100.43,34v-.32c0-.14-.21-1-.29-1.36Z"/><path id="path3245" class="cls-14" d="M79.44,30.73a2.68,2.68,0,0,0,1.36-2.68,4.77,4.77,0,0,0-.57-2,2.3,2.3,0,0,1,.23,1.45A2.78,2.78,0,0,1,79,29.62a1.93,1.93,0,0,1-2.14-.23,1.68,1.68,0,0,1-.41-.57,4.93,4.93,0,0,0,.46,1.46,1.79,1.79,0,0,0,2.47.5Z"/><path id="path3266" class="cls-15" d="M102.52,20.36l-.36-1.66a.18.18,0,0,1,0,.12c-.48.82-9.76,14.83-10.35,16.28a1.05,1.05,0,0,0,0,1.05.91.91,0,0,0,.79.34,3,3,0,0,1,.18-.59c.59-1.45,9.28-14.55,9.76-15.37a.27.27,0,0,0,0-.2Z"/><path id="path3287" class="cls-16" d="M63.59,25.36h0a6.05,6.05,0,0,1,.89,3.18c0,.25.14.27.27.12l.34-.36a9.91,9.91,0,0,0-.68-1.79A5.57,5.57,0,0,0,63.59,25.36Z"/><path id="path3308" class="cls-17" d="M68.71,29.41c.66-.55,1.36-.91,1.79-.73.27-.68.14-1.07-.14-1.25s-1.3.14-2,.7A27.49,27.49,0,0,0,63.79,33a29.19,29.19,0,0,1-2.28,2.93,7.14,7.14,0,0,1-7.44,2.62,4.44,4.44,0,0,1-2.89-3c0-.27-.23-.36-.37-.16a10.71,10.71,0,0,1-2,1.79.46.46,0,0,1-.45,0,4.52,4.52,0,0,1-.8-1h0a3.76,3.76,0,0,0,1.11,2.3.46.46,0,0,0,.43,0,8.78,8.78,0,0,0,2.14-1.79c.14-.14.29,0,.32.11a6.77,6.77,0,0,0,.82,1.62,3.57,3.57,0,0,0,2,1.41,6.34,6.34,0,0,0,4.18-.25,11,11,0,0,0,3.87-2.75,28.33,28.33,0,0,0,2.28-2.95,30.13,30.13,0,0,1,4-4.46Z"/><path id="path3329" class="cls-18" d="M32.23,33.07a4.43,4.43,0,0,1,.54-3,6.1,6.1,0,0,1,2.53-2.55c.39-.25.57-.5.34-1.14a5.37,5.37,0,0,0-.18-.82.66.66,0,0,1-.37.66,7.14,7.14,0,0,0-3.25,2.95A3.57,3.57,0,0,0,32,32.73l.23.29Z"/><path id="path3350" class="cls-19" d="M40.12,19.09a5.36,5.36,0,0,1,4.09-5.18c4.09-1.34,8.66-.5,12.33.29.52-.32,1-.54,1.41-.79s0-.25-.09-.25c-4.73-.87-9.66-2-14.28-.3-3.25,1.2-4.68,3.77-4,5.46a1.62,1.62,0,0,0,.62.77Z"/><path id="path3371" class="cls-20" d="M52.63,24.09c1.55-.2,3-.29,4.34-.41h.87a8.18,8.18,0,0,0,1.46,1.16.91.91,0,0,1,.62.2.77.77,0,0,0,.41-.2.57.57,0,0,0,.16-.55,6.32,6.32,0,0,0-.27-1.2.48.48,0,0,1-.12.52.66.66,0,0,1-.5.23,1.05,1.05,0,0,1-.52-.18,4.84,4.84,0,0,1-1.43-1.14c-.12-.16-.2-.16-.52-.14a52,52,0,0,0-5.36.5c-.37,0-.43.12-.52.25a64.62,64.62,0,0,1-8,11.39,11.3,11.3,0,0,1-8.48,4A6.52,6.52,0,0,1,28,33.59,8.62,8.62,0,0,0,31,38.42a7.14,7.14,0,0,0,4.21,1.27,12.12,12.12,0,0,0,9-4.28,61.66,61.66,0,0,0,7.93-11.07c0-.14.18-.21.59-.27Z"/><path id="path3392" class="cls-21" d="M47.52,23.57a6.48,6.48,0,0,0-3.84,1.34.75.75,0,0,1-1.05-.11.68.68,0,0,1-.11-.36A3.32,3.32,0,0,0,42.88,26a.82.82,0,0,0,1.14.12,6.66,6.66,0,0,1,2.77-1.29l.82-1.12a.11.11,0,0,0,0-.11h-.11Z"/><path id="path3434" class="cls-22" d="M52.63,21.25v.12h1.3a19.9,19.9,0,0,1,5.68-5.57c.18-.14.37-.23.3-.77,5,1.11,8.93,2.95,15.35,3a13.94,13.94,0,0,0,6.14-1.52c1.7-1,2.14-1.79,2.2-2.53a3.23,3.23,0,0,0,0-.8,2.82,2.82,0,0,0-.18-.86,1.05,1.05,0,0,1,0,.34c0,.89-.75,1.79-2.48,2.7a12.76,12.76,0,0,1-6.18,1.41c-5.19,0-10.05-2-15.07-3.05a.93.93,0,0,1-.12.61,23.65,23.65,0,0,0-7,7Z"/><path id="path3455" class="cls-23" d="M59.4,19.86a.86.86,0,0,1,.7-.23c.2-.37.25-.82,0-1a.71.71,0,0,0-.87,0l-.2.18a2.07,2.07,0,0,0-.57,1.7c0,.21.12.25.21.23l.29-.09a1.23,1.23,0,0,1,.45-.8Z"/><path id="path3476" class="cls-24" d="M61.48,21.56a2.91,2.91,0,0,0,.27-1.79,4.46,4.46,0,0,0-.37-1.48,2.46,2.46,0,0,1-.16,2.18,3.34,3.34,0,0,1-2,1.62.15.15,0,0,0-.14.18c0,.18.55.5.89.73h.12a2.62,2.62,0,0,0,1.41-1.36Z"/><path id="path3497" class="cls-25" d="M38.39,23.27a4.46,4.46,0,0,0,2.53.64,7.89,7.89,0,0,0,6.69-5.14,3,3,0,0,0,0-1.79,4.61,4.61,0,0,0-.23-.84h0a1.29,1.29,0,0,1,0,1A8.73,8.73,0,0,1,40.24,23a4.14,4.14,0,0,1-4.05-2.36,6.55,6.55,0,0,0,2.39,2.59Z"/><path id="path3521" class="cls-26" d="M124.16,33.52C116.41,41.24,98,46.88,76.57,48.46c-3.77.28-7.64.43-11.56.45-3.71,0-7.35,0-10.89-.3,3.57.21,7.14.34,10.71.34C99.68,48.94,128,38.41,128,25.59a8.78,8.78,0,0,0-.12-1.46,8.71,8.71,0,0,1,0,1.2A11.62,11.62,0,0,1,124,33.5Z"/><path id="path3534" class="cls-27" d="M64.89,46.21C31.83,46.21,5,37,5,25.59S31.83,5,64.89,5s59.84,9.23,59.84,20.64S97.94,46.21,64.89,46.21Zm0-39.47C33,6.74,7.15,15.18,7.15,25.59S33,44.42,64.89,44.42,122.64,36,122.64,25.59,96.78,6.74,64.89,6.74Z"/><path id="path3549" class="cls-28" d="M102.15,18.84c0-.14,0-.25-.2-.25H98.81c-.23,0-.36,0-.46.25-.37.7-4.86,7.34-5.68,8.64-.14.2-.3.16-.34,0a2.78,2.78,0,0,0-1.79-2.07,4.62,4.62,0,0,0-2.45-.34,8.6,8.6,0,0,0-3.95,1.79c-1.79,1.3-3.23,3-5.18,4.27-1.05.68-2.5,1.29-3.48.39a2.89,2.89,0,0,1,.57-4,.16.16,0,0,1,.29.11,1.79,1.79,0,0,0,.5,1.68,1.93,1.93,0,0,0,2.14.23,2.78,2.78,0,0,0,1.48-2.12A2.43,2.43,0,0,0,78.4,24.7l-.17,0A4.52,4.52,0,0,0,75,25.84a6.14,6.14,0,0,0-1.27,1.37c-.11.16-.29.18-.27,0,0-1.79-.7-2.82-2.21-2.86a5.66,5.66,0,0,0-3.39,1.37,31.27,31.27,0,0,0-3,3c-.12.12-.23.12-.27-.12a6.05,6.05,0,0,0-.89-3.18.75.75,0,0,0-1-.23,7,7,0,0,0-1.14.68.62.62,0,0,0-.2.71,8.28,8.28,0,0,1-.3,5.53,6.14,6.14,0,0,1-3.57,3.46,2.34,2.34,0,0,1-2.71-.73,4.59,4.59,0,0,1,.8-5.12,10,10,0,0,1,4.57-3.2.27.27,0,0,0,.2-.32l0-.05c-.09-.29-.23-.66-.3-.82A1.33,1.33,0,0,0,59,24.93a9.64,9.64,0,0,0-3.45,1.14,11.67,11.67,0,0,0-4.91,6.07,6.16,6.16,0,0,1-.91,1.66,16.46,16.46,0,0,1-2.07,2,.36.36,0,0,0,0,.41,4.5,4.5,0,0,0,.8,1,.46.46,0,0,0,.45,0,10.71,10.71,0,0,0,2-1.79c.14-.18.3-.11.37.16a4.44,4.44,0,0,0,2.89,3,7.23,7.23,0,0,0,7.32-2.7A29.15,29.15,0,0,0,63.79,33a27.51,27.51,0,0,1,4.53-4.89c.73-.55,1.61-1,2-.7s.46.75-.11,1.79c-2,3.7-5.05,8-5.61,9.09a.2.2,0,0,0,.18.32h3.11a.37.37,0,0,0,.32-.2c1.57-2.43,3.05-4.75,4.62-7.14,0-.14.18,0,.18,0a3.93,3.93,0,0,0,.5,1.79A2.75,2.75,0,0,0,76,34.51a4.55,4.55,0,0,0,1.93-.41,6.8,6.8,0,0,0,1.59-.84.16.16,0,0,1,.27.14,4.57,4.57,0,0,0,2,5.16c2.32,1.12,4.87-.46,6.34-1.89.14-.14.3-.12.3.18a2.64,2.64,0,0,0,.73,1.66c1.23,1.21,3.71.73,6.19-1.16a31,31,0,0,0,4.78-4.77.21.21,0,0,0,0-.3h0c-.23-.23-.57-.52-.79-.71a.29.29,0,0,0-.34,0A39.84,39.84,0,0,1,94,36.07c-.68.46-1.79.84-2.25.2a1.05,1.05,0,0,1,0-1.05c.59-1.45,9.87-15.46,10.35-16.28ZM89.88,30.57c0,.11.16.21.3.27s0,0,0,.16a13.51,13.51,0,0,1-1.25,2.05,7.69,7.69,0,0,1-1.59,1.79c-.93.77-2.23,1.61-3.32,1a1.61,1.61,0,0,1-.68-1.45,7.52,7.52,0,0,1,1.95-4.57c1.52-1.79,3.21-2.82,4.32-2.3s.79,1.79.27,2.87A.27.27,0,0,0,89.88,30.57Z"/><path id="path3564" class="cls-29" d="M34.78,38.55a6.44,6.44,0,0,1-6.87-5.82,7.35,7.35,0,0,1,1.55-5.36,7.68,7.68,0,0,1,4.25-2.71,1.62,1.62,0,0,1,1.39.29A.75.75,0,0,1,35,26.18a7.14,7.14,0,0,0-3.14,3A3.57,3.57,0,0,0,32,32.73c1.39,2.07,5.36,2.14,8.93-1.18a30.81,30.81,0,0,0,2.53-2.39A56,56,0,0,0,47.7,23.8a.11.11,0,0,0,0-.11H47.6A6.48,6.48,0,0,0,43.76,25a.75.75,0,0,1-1.05-.11A.84.84,0,0,1,43,23.8a14.28,14.28,0,0,1,6.16-1.93.36.36,0,0,0,.27-.16c.87-1.12,1.54-2.12,2.48-3.25a25,25,0,0,1,3.11-3,13.83,13.83,0,0,1,3-1.95c.23-.11,0-.25-.09-.25-4.73-.87-9.66-2-14.28-.3-3.25,1.2-4.68,3.77-4,5.46.48,1.21,2.11,1.41,3.57.68a8.12,8.12,0,0,0,3.23-2.84c.46-.7,1.43-.2.91,1a8.73,8.73,0,0,1-7.14,5.86,4.18,4.18,0,0,1-4.48-4.36c0-4.84,5.36-8,11.16-8.5,6.87-.57,13.39,1.25,20.21,2.07a44.38,44.38,0,0,0,15.49-.55.79.79,0,0,1,1,.87c0,.89-.75,1.79-2.48,2.7A12.76,12.76,0,0,1,75,16.79c-5.19,0-10.05-2-15.07-3.05a.93.93,0,0,1-.12.61,23.67,23.67,0,0,0-7,7v.12c1.46,0,2.77-.11,4.14-.21.23,0,.25,0,.23-.25a3.34,3.34,0,0,1,1.05-2.91,2.18,2.18,0,0,1,2.8-.32,2.14,2.14,0,0,1,.3,2.73,3.34,3.34,0,0,1-2,1.62.15.15,0,0,0-.14.18c0,.18,1.05.79,1.14.95a.46.46,0,0,1-.11.54.66.66,0,0,1-.5.23,1.05,1.05,0,0,1-.52-.18,4.84,4.84,0,0,1-1.43-1.14c-.12-.16-.2-.16-.52-.14a52,52,0,0,0-5.36.5c-.37,0-.43.12-.52.25a64.62,64.62,0,0,1-8.12,11.23h0a11.3,11.3,0,0,1-8.48,4Zm23.67-18c0,.21.12.25.21.23a2.27,2.27,0,0,0,1.3-.93c.29-.41.41-1,.12-1.23a.75.75,0,0,0-.95.11,2.07,2.07,0,0,0-.7,1.79h0"/></g></g></svg>