<svg id="Camada_1" data-name="Camada 1" xmlns="http://www.w3.org/2000/svg" viewBox="0 0 60.83 50"><defs><style>.cls-1{fill:#da251d;}</style></defs><title>honda</title><g id="g1963"><path id="path1965" class="cls-1" d="M43.76,5.33c-1.33,6-1.86,8.69-2.95,13s-1.85,8-3.25,9.84A6.28,6.28,0,0,1,33,30.62a20.73,20.73,0,0,1-2.6.12,20.78,20.78,0,0,1-2.6-.12,6.28,6.28,0,0,1-4.6-2.45c-1.4-1.86-2.2-5.71-3.25-9.84s-1.67-7-2.95-13l-1.91.1a15.64,15.64,0,0,0-2.1.22s.77,12.25,1.12,17.45c.37,5.46,1,14.67,1.67,21.65,0,0,1.12.18,3,.28s2.83.12,2.83.12A44,44,0,0,1,24.49,36a3.9,3.9,0,0,1,3.13-1.67,18.57,18.57,0,0,1,2.81-.28h0a18.4,18.4,0,0,1,2.81.18,3.9,3.9,0,0,1,3.13,1.67A44.07,44.07,0,0,1,39.31,45s.87,0,2.83-.12,3-.28,3-.28c.6-6.94,1.25-16.15,1.67-21.65C47.14,17.8,47.9,5.54,47.9,5.54c-.68-.08-1.3-.15-2.1-.22Z"/><path id="path1967" class="cls-1" d="M59.26,12.55c-.78-7.78-6-9.42-10.54-10.19a88.91,88.91,0,0,0-9-.82c-2.3-.13-7.63-.22-9.29-.22s-7,0-9.27.22a88.88,88.88,0,0,0-9,.82C7.61,3.13,2.41,4.78,1.63,12.55a73.26,73.26,0,0,0-.23,7.86A100.93,100.93,0,0,0,2.13,31,52.58,52.58,0,0,0,3.8,39.79a9.87,9.87,0,0,0,3.45,5.38A15.78,15.78,0,0,0,14,47.78a123.06,123.06,0,0,0,16.43.88,123,123,0,0,0,16.43-.88,15.78,15.78,0,0,0,6.76-2.55,9.87,9.87,0,0,0,3.45-5.44A52.7,52.7,0,0,0,58.74,31a100.82,100.82,0,0,0,.73-10.57,72.76,72.76,0,0,0-.23-7.86ZM56.39,25.64a63.27,63.27,0,0,1-1.8,12.64,10.46,10.46,0,0,1-2.81,5,12.39,12.39,0,0,1-6.66,2.56,119.63,119.63,0,0,1-14.69.78,119.52,119.52,0,0,1-14.67-.73,12.39,12.39,0,0,1-6.66-2.56,10.46,10.46,0,0,1-2.81-5A63.12,63.12,0,0,1,4.48,25.64a81.34,81.34,0,0,1,.2-13.09c.62-4.86,3-7.31,8.21-8.24a74.71,74.71,0,0,1,8.74-.88c2.46-.17,6.54-.25,8.81-.23s6.34,0,8.81.23A74.93,74.93,0,0,1,48,4.31c5.18.92,7.59,3.33,8.21,8.24A81.59,81.59,0,0,1,56.39,25.64Z"/></g></svg>